<svg width="1016" height="557" viewBox="0 0 1016 557" fill="none" xmlns="http://www.w3.org/2000/svg">
<g clip-path="url(#clip0_761_59)">
<circle cx="387" cy="251" r="201" stroke="#FF964A" stroke-width="20"/>
<mask id="mask0_761_59" style="mask-type:alpha" maskUnits="userSpaceOnUse" x="153" y="16" width="234" height="166">
<path d="M207 16H387V182H207L153.5 163.5L207 16Z" fill="#D9D9D9"/>
</mask>
<g mask="url(#mask0_761_59)">
<circle cx="387" cy="251" r="201" stroke="#FFF500" stroke-width="20"/>
</g>
<mask id="mask1_761_59" style="mask-type:alpha" maskUnits="userSpaceOnUse" x="109" y="175" width="233" height="249">
<path d="M187.5 175L209.5 182L342 404L282 393.5L255 423.5L162.385 404L109 379.705L187.5 175Z" fill="#D9D9D9"/>
</mask>
<g mask="url(#mask1_761_59)">
<circle cx="387" cy="251" r="201" stroke="#4A5CFF" stroke-width="20"/>
</g>
<mask id="mask2_761_59" style="mask-type:alpha" maskUnits="userSpaceOnUse" x="332" y="-27" width="233" height="239">
<path d="M386 -27L474.5 28L461.5 90.5L565 192L505 181.5L478 211.5L385.385 192L332 167.705L387 60.5L386 -27Z" fill="#D9D9D9"/>
</mask>
<g mask="url(#mask2_761_59)">
<circle cx="387" cy="251" r="201" stroke="#4AFFF4" stroke-width="20"/>
</g>
<mask id="mask3_761_59" style="mask-type:alpha" maskUnits="userSpaceOnUse" x="256" y="263" width="299" height="249">
<path d="M323.5 263L500 384L554.5 436L418 481.5L391 511.5L298.385 492L256 421.5L283 389.5L323.5 263Z" fill="#D9D9D9"/>
</mask>
<g mask="url(#mask3_761_59)">
<circle cx="387" cy="251" r="201" stroke="#4EFF4A" stroke-width="20"/>
</g>
<mask id="mask4_761_59" style="mask-type:alpha" maskUnits="userSpaceOnUse" x="419" y="24" width="244" height="252">
<path d="M475.5 24.5L663 148L602 185.5L554 199.5V275.5L461.385 256L419 185.5L446 153.5L475.5 24.5Z" fill="#D9D9D9"/>
</mask>
<g mask="url(#mask4_761_59)">
<circle cx="387" cy="251" r="201" stroke="#844AFF" stroke-width="20"/>
</g>
<path d="M542 110L565 87H656.5" stroke="#844AFF" stroke-width="6"/>
<rect x="656" y="81" width="12" height="12" rx="4" stroke="#844AFF" stroke-width="4"/>
<path d="M422 47L445 24H536.5" stroke="#4AFFF4" stroke-width="6"/>
<rect x="536" y="18" width="12" height="12" rx="4" stroke="#4AFFF4" stroke-width="4"/>
<path d="M582 299L605 322H696.5" stroke="#FF964A" stroke-width="6"/>
<rect x="2" y="-2" width="12" height="12" rx="4" transform="matrix(1 0 0 -1 694 326)" stroke="#FF964A" stroke-width="4"/>
<path d="M270 78L247 55H155.5" stroke="#FFF500" stroke-width="6"/>
<rect x="-2" y="2" width="12" height="12" rx="4" transform="matrix(-1 0 0 1 154 47)" stroke="#FFF500" stroke-width="4"/>
<path d="M190 299L167 322H75.5" stroke="#4A5CFF" stroke-width="6"/>
<rect x="76" y="328" width="12" height="12" rx="4" transform="rotate(180 76 328)" stroke="#4A5CFF" stroke-width="4"/>
<path d="M391 457V483.5H299.5" stroke="#4EFF4A" stroke-width="6"/>
<rect x="300" y="489.5" width="12" height="12" rx="4" transform="rotate(180 300 489.5)" stroke="#4EFF4A" stroke-width="4"/>
<path d="M325.409 227.455V298H310.494V241.612H310.081L293.926 251.739V238.512L311.39 227.455H325.409ZM367.942 298.964C363.073 298.964 358.733 298.069 354.921 296.278C351.132 294.487 348.124 292.018 345.896 288.872C343.669 285.726 342.509 282.12 342.417 278.056H356.884C357.045 280.788 358.193 283.004 360.329 284.704C362.465 286.403 365.002 287.253 367.942 287.253C370.284 287.253 372.351 286.736 374.142 285.703C375.956 284.646 377.368 283.188 378.379 281.328C379.412 279.445 379.929 277.286 379.929 274.852C379.929 272.372 379.401 270.191 378.344 268.308C377.311 266.424 375.876 264.955 374.039 263.898C372.201 262.842 370.1 262.302 367.735 262.279C365.668 262.279 363.659 262.704 361.707 263.554C359.778 264.404 358.274 265.563 357.195 267.033L343.933 264.656L347.274 227.455H390.4V239.648H359.571L357.746 257.319H358.159C359.399 255.574 361.271 254.127 363.774 252.979C366.277 251.831 369.078 251.257 372.179 251.257C376.427 251.257 380.216 252.256 383.546 254.254C386.876 256.251 389.505 258.996 391.434 262.486C393.363 265.954 394.316 269.949 394.293 274.473C394.316 279.227 393.214 283.452 390.986 287.15C388.782 290.824 385.693 293.717 381.72 295.83C377.77 297.92 373.177 298.964 367.942 298.964ZM443.31 284.773V281.053C443.31 278.228 443.907 275.633 445.101 273.268C446.318 270.879 448.075 268.973 450.371 267.55C452.69 266.103 455.515 265.38 458.845 265.38C462.22 265.38 465.056 266.092 467.353 267.515C469.672 268.939 471.418 270.845 472.589 273.233C473.783 275.599 474.38 278.205 474.38 281.053V284.773C474.38 287.597 473.783 290.204 472.589 292.592C471.395 294.957 469.638 296.852 467.318 298.276C464.999 299.722 462.175 300.446 458.845 300.446C455.469 300.446 452.633 299.722 450.337 298.276C448.04 296.852 446.295 294.957 445.101 292.592C443.907 290.204 443.31 287.597 443.31 284.773ZM453.333 281.053V284.773C453.333 286.403 453.724 287.942 454.505 289.388C455.308 290.835 456.755 291.559 458.845 291.559C460.934 291.559 462.358 290.847 463.116 289.423C463.897 287.999 464.287 286.449 464.287 284.773V281.053C464.287 279.376 463.92 277.815 463.185 276.368C462.45 274.921 461.003 274.198 458.845 274.198C456.778 274.198 455.343 274.921 454.539 276.368C453.735 277.815 453.333 279.376 453.333 281.053ZM407.107 244.402V240.682C407.107 237.834 407.715 235.228 408.932 232.863C410.15 230.474 411.906 228.568 414.203 227.145C416.522 225.721 419.324 225.009 422.608 225.009C426.006 225.009 428.854 225.721 431.15 227.145C433.447 228.568 435.192 230.474 436.386 232.863C437.58 235.228 438.177 237.834 438.177 240.682V244.402C438.177 247.25 437.569 249.856 436.351 252.221C435.157 254.587 433.401 256.481 431.081 257.905C428.785 259.306 425.96 260.006 422.608 260.006C419.255 260.006 416.419 259.294 414.099 257.87C411.803 256.424 410.058 254.529 408.864 252.187C407.692 249.821 407.107 247.227 407.107 244.402ZM417.199 240.682V244.402C417.199 246.078 417.59 247.628 418.371 249.052C419.174 250.476 420.587 251.188 422.608 251.188C424.72 251.188 426.155 250.476 426.913 249.052C427.694 247.628 428.084 246.078 428.084 244.402V240.682C428.084 239.005 427.717 237.444 426.982 235.997C426.247 234.55 424.789 233.827 422.608 233.827C420.564 233.827 419.151 234.562 418.371 236.032C417.59 237.501 417.199 239.051 417.199 240.682ZM411.654 298L460.154 227.455H469.179L420.679 298H411.654Z" fill="#b47d28"/>
<path d="M35.0625 92H29.3906V76H35.1094C36.7188 76 38.1042 76.3203 39.2656 76.9609C40.4271 77.5964 41.3203 78.5104 41.9453 79.7031C42.5755 80.8958 42.8906 82.3229 42.8906 83.9844C42.8906 85.651 42.5755 87.0833 41.9453 88.2812C41.3203 89.4792 40.4219 90.3984 39.25 91.0391C38.0833 91.6797 36.6875 92 35.0625 92ZM32.7734 89.1016H34.9219C35.9219 89.1016 36.763 88.9245 37.4453 88.5703C38.1328 88.2109 38.6484 87.6562 38.9922 86.9062C39.3411 86.151 39.5156 85.1771 39.5156 83.9844C39.5156 82.8021 39.3411 81.8359 38.9922 81.0859C38.6484 80.3359 38.1354 79.7839 37.4531 79.4297C36.7708 79.0755 35.9297 78.8984 34.9297 78.8984H32.7734V89.1016ZM50.8027 92.2344C49.5684 92.2344 48.5059 91.9844 47.6152 91.4844C46.7298 90.9792 46.0475 90.2656 45.5684 89.3437C45.0892 88.4167 44.8496 87.3203 44.8496 86.0547C44.8496 84.8203 45.0892 83.737 45.5684 82.8047C46.0475 81.8724 46.722 81.1458 47.5918 80.625C48.4668 80.1042 49.4928 79.8438 50.6699 79.8438C51.4616 79.8438 52.1986 79.9714 52.8809 80.2266C53.5684 80.4766 54.1673 80.8542 54.6777 81.3594C55.1934 81.8646 55.5944 82.5 55.8809 83.2656C56.1673 84.026 56.3105 84.9167 56.3105 85.9375V86.8516H46.1777V84.7891H53.1777C53.1777 84.3099 53.0736 83.8854 52.8652 83.5156C52.6569 83.1458 52.3678 82.8568 51.998 82.6484C51.6335 82.4349 51.209 82.3281 50.7246 82.3281C50.2194 82.3281 49.7715 82.4453 49.3809 82.6797C48.9954 82.9089 48.6934 83.2187 48.4746 83.6094C48.2559 83.9948 48.1439 84.4245 48.1387 84.8984V86.8594C48.1387 87.4531 48.248 87.9661 48.4668 88.3984C48.6908 88.8307 49.0059 89.1641 49.4121 89.3984C49.8184 89.6328 50.3001 89.75 50.8574 89.75C51.2272 89.75 51.5658 89.6979 51.873 89.5938C52.1803 89.4896 52.4434 89.3333 52.6621 89.125C52.8809 88.9167 53.0475 88.6615 53.1621 88.3594L56.2402 88.5625C56.084 89.3021 55.7637 89.9479 55.2793 90.5C54.8001 91.0469 54.1803 91.474 53.4199 91.7813C52.6647 92.0833 51.7923 92.2344 50.8027 92.2344ZM69.3477 80L65.1523 92H61.4023L57.207 80H60.7227L63.2148 88.5859H63.3398L65.8242 80H69.3477ZM76.1328 92.2344C74.8984 92.2344 73.8359 91.9844 72.9453 91.4844C72.0599 90.9792 71.3776 90.2656 70.8984 89.3437C70.4193 88.4167 70.1797 87.3203 70.1797 86.0547C70.1797 84.8203 70.4193 83.737 70.8984 82.8047C71.3776 81.8724 72.0521 81.1458 72.9219 80.625C73.7969 80.1042 74.8229 79.8438 76 79.8438C76.7917 79.8438 77.5286 79.9714 78.2109 80.2266C78.8984 80.4766 79.4974 80.8542 80.0078 81.3594C80.5234 81.8646 80.9245 82.5 81.2109 83.2656C81.4974 84.026 81.6406 84.9167 81.6406 85.9375V86.8516H71.5078V84.7891H78.5078C78.5078 84.3099 78.4036 83.8854 78.1953 83.5156C77.987 83.1458 77.6979 82.8568 77.3281 82.6484C76.9635 82.4349 76.5391 82.3281 76.0547 82.3281C75.5495 82.3281 75.1016 82.4453 74.7109 82.6797C74.3255 82.9089 74.0234 83.2187 73.8047 83.6094C73.5859 83.9948 73.474 84.4245 73.4688 84.8984V86.8594C73.4688 87.4531 73.5781 87.9661 73.7969 88.3984C74.0208 88.8307 74.3359 89.1641 74.7422 89.3984C75.1484 89.6328 75.6302 89.75 76.1875 89.75C76.5573 89.75 76.8958 89.6979 77.2031 89.5938C77.5104 89.4896 77.7734 89.3333 77.9922 89.125C78.2109 88.9167 78.3776 88.6615 78.4922 88.3594L81.5703 88.5625C81.4141 89.3021 81.0938 89.9479 80.6094 90.5C80.1302 91.0469 79.5104 91.474 78.75 91.7813C77.9948 92.0833 77.1224 92.2344 76.1328 92.2344ZM87.1406 76V92H83.8125V76H87.1406ZM95.2285 92.2344C94.015 92.2344 92.9655 91.9766 92.0801 91.4609C91.1999 90.9401 90.5202 90.2161 90.041 89.2891C89.5618 88.3568 89.3223 87.276 89.3223 86.0469C89.3223 84.8073 89.5618 83.724 90.041 82.7969C90.5202 81.8646 91.1999 81.1406 92.0801 80.625C92.9655 80.1042 94.015 79.8438 95.2285 79.8438C96.4421 79.8438 97.4889 80.1042 98.3691 80.625C99.2546 81.1406 99.9368 81.8646 100.416 82.7969C100.895 83.724 101.135 84.8073 101.135 86.0469C101.135 87.276 100.895 88.3568 100.416 89.2891C99.9368 90.2161 99.2546 90.9401 98.3691 91.4609C97.4889 91.9766 96.4421 92.2344 95.2285 92.2344ZM95.2441 89.6562C95.7962 89.6562 96.2572 89.5 96.627 89.1875C96.9967 88.8698 97.2754 88.4375 97.4629 87.8906C97.6556 87.3437 97.752 86.7214 97.752 86.0234C97.752 85.3255 97.6556 84.7031 97.4629 84.1562C97.2754 83.6094 96.9967 83.1771 96.627 82.8594C96.2572 82.5417 95.7962 82.3828 95.2441 82.3828C94.6868 82.3828 94.2181 82.5417 93.8379 82.8594C93.4629 83.1771 93.179 83.6094 92.9863 84.1562C92.7988 84.7031 92.7051 85.3255 92.7051 86.0234C92.7051 86.7214 92.7988 87.3437 92.9863 87.8906C93.179 88.4375 93.4629 88.8698 93.8379 89.1875C94.2181 89.5 94.6868 89.6562 95.2441 89.6562ZM103.299 96.5V80H106.58V82.0156H106.729C106.874 81.6927 107.085 81.3646 107.361 81.0312C107.643 80.6927 108.007 80.4115 108.455 80.1875C108.908 79.9583 109.471 79.8438 110.143 79.8438C111.018 79.8438 111.825 80.0729 112.564 80.5313C113.304 80.9844 113.895 81.6693 114.338 82.5859C114.781 83.4974 115.002 84.6406 115.002 86.0156C115.002 87.3542 114.786 88.4844 114.354 89.4062C113.926 90.3229 113.343 91.0182 112.604 91.4922C111.869 91.9609 111.046 92.1953 110.135 92.1953C109.489 92.1953 108.939 92.0885 108.486 91.875C108.038 91.6615 107.671 91.3932 107.385 91.0703C107.098 90.7422 106.88 90.4115 106.729 90.0781H106.627V96.5H103.299ZM106.557 86C106.557 86.7135 106.656 87.3359 106.854 87.8672C107.051 88.3984 107.338 88.8125 107.713 89.1094C108.088 89.401 108.544 89.5469 109.08 89.5469C109.622 89.5469 110.08 89.3984 110.455 89.1016C110.83 88.7995 111.114 88.3828 111.307 87.8516C111.505 87.3151 111.604 86.6979 111.604 86C111.604 85.3073 111.507 84.6979 111.314 84.1719C111.122 83.6458 110.838 83.2344 110.463 82.9375C110.088 82.6406 109.627 82.4922 109.08 82.4922C108.538 82.4922 108.08 82.6354 107.705 82.9219C107.335 83.2083 107.051 83.6146 106.854 84.1406C106.656 84.6667 106.557 85.2865 106.557 86ZM117.221 92V80H120.393V82.1172H120.533C120.783 81.4141 121.2 80.8594 121.783 80.4531C122.367 80.0469 123.064 79.8438 123.877 79.8438C124.7 79.8438 125.4 80.0495 125.979 80.4609C126.557 80.8672 126.942 81.4193 127.135 82.1172H127.26C127.505 81.4297 127.947 80.8802 128.588 80.4687C129.234 80.0521 129.997 79.8438 130.877 79.8438C131.997 79.8438 132.906 80.2005 133.604 80.9141C134.307 81.6224 134.658 82.6276 134.658 83.9297V92H131.338V84.5859C131.338 83.9193 131.161 83.4193 130.807 83.0859C130.452 82.7526 130.01 82.5859 129.479 82.5859C128.874 82.5859 128.403 82.7786 128.064 83.1641C127.726 83.5443 127.557 84.0469 127.557 84.6719V92H124.33V84.5156C124.33 83.9271 124.161 83.4583 123.822 83.1094C123.489 82.7604 123.049 82.5859 122.502 82.5859C122.132 82.5859 121.799 82.6797 121.502 82.8672C121.21 83.0495 120.979 83.3073 120.807 83.6406C120.635 83.9687 120.549 84.3542 120.549 84.7969V92H117.221ZM142.756 92.2344C141.521 92.2344 140.459 91.9844 139.568 91.4844C138.683 90.9792 138.001 90.2656 137.521 89.3437C137.042 88.4167 136.803 87.3203 136.803 86.0547C136.803 84.8203 137.042 83.737 137.521 82.8047C138.001 81.8724 138.675 81.1458 139.545 80.625C140.42 80.1042 141.446 79.8438 142.623 79.8438C143.415 79.8438 144.152 79.9714 144.834 80.2266C145.521 80.4766 146.12 80.8542 146.631 81.3594C147.146 81.8646 147.548 82.5 147.834 83.2656C148.12 84.026 148.264 84.9167 148.264 85.9375V86.8516H138.131V84.7891H145.131C145.131 84.3099 145.027 83.8854 144.818 83.5156C144.61 83.1458 144.321 82.8568 143.951 82.6484C143.587 82.4349 143.162 82.3281 142.678 82.3281C142.173 82.3281 141.725 82.4453 141.334 82.6797C140.949 82.9089 140.646 83.2187 140.428 83.6094C140.209 83.9948 140.097 84.4245 140.092 84.8984V86.8594C140.092 87.4531 140.201 87.9661 140.42 88.3984C140.644 88.8307 140.959 89.1641 141.365 89.3984C141.771 89.6328 142.253 89.75 142.811 89.75C143.18 89.75 143.519 89.6979 143.826 89.5938C144.133 89.4896 144.396 89.3333 144.615 89.125C144.834 88.9167 145.001 88.6615 145.115 88.3594L148.193 88.5625C148.037 89.3021 147.717 89.9479 147.232 90.5C146.753 91.0469 146.133 91.474 145.373 91.7813C144.618 92.0833 143.745 92.2344 142.756 92.2344ZM153.764 85.0625V92H150.436V80H153.607V82.1172H153.748C154.014 81.4193 154.459 80.8672 155.084 80.4609C155.709 80.0495 156.467 79.8438 157.357 79.8438C158.191 79.8438 158.917 80.026 159.537 80.3906C160.157 80.7552 160.639 81.276 160.982 81.9531C161.326 82.625 161.498 83.4271 161.498 84.3594V92H158.17V84.9531C158.175 84.2187 157.988 83.6458 157.607 83.2344C157.227 82.8177 156.704 82.6094 156.037 82.6094C155.589 82.6094 155.193 82.7057 154.85 82.8984C154.511 83.0911 154.245 83.3724 154.053 83.7422C153.865 84.1068 153.769 84.5469 153.764 85.0625ZM170.504 80V82.5H163.277V80H170.504ZM164.918 77.125H168.246V88.3125C168.246 88.6198 168.293 88.8594 168.387 89.0312C168.48 89.1979 168.611 89.3151 168.777 89.3828C168.949 89.4505 169.147 89.4844 169.371 89.4844C169.527 89.4844 169.684 89.4714 169.84 89.4453C169.996 89.4141 170.116 89.3906 170.199 89.375L170.723 91.8516C170.556 91.9036 170.322 91.9635 170.02 92.0313C169.717 92.1042 169.35 92.1484 168.918 92.1641C168.116 92.1953 167.413 92.0885 166.809 91.8437C166.21 91.599 165.743 91.2187 165.41 90.7031C165.077 90.1875 164.913 89.5365 164.918 88.75V77.125ZM185.24 82.6797V85.3203H177.943V82.6797H185.24ZM199.051 92.2187C197.884 92.2187 196.845 92.0182 195.934 91.6172C195.027 91.2109 194.311 90.6536 193.785 89.9453C193.264 89.2318 192.996 88.4089 192.98 87.4766H196.387C196.408 87.8672 196.535 88.2109 196.77 88.5078C197.009 88.7995 197.327 89.026 197.723 89.1875C198.118 89.349 198.564 89.4297 199.059 89.4297C199.574 89.4297 200.03 89.3385 200.426 89.1562C200.822 88.974 201.132 88.7214 201.355 88.3984C201.579 88.0755 201.691 87.7031 201.691 87.2812C201.691 86.8542 201.572 86.4766 201.332 86.1484C201.098 85.8151 200.759 85.5547 200.316 85.3672C199.879 85.1797 199.358 85.0859 198.754 85.0859H197.262V82.6016H198.754C199.264 82.6016 199.715 82.513 200.105 82.3359C200.501 82.1589 200.809 81.9141 201.027 81.6016C201.246 81.2839 201.355 80.9141 201.355 80.4922C201.355 80.0911 201.259 79.7396 201.066 79.4375C200.879 79.1302 200.613 78.8906 200.27 78.7187C199.931 78.5469 199.535 78.4609 199.082 78.4609C198.624 78.4609 198.204 78.5443 197.824 78.7109C197.444 78.8724 197.139 79.1042 196.91 79.4062C196.681 79.7083 196.559 80.0625 196.543 80.4687H193.301C193.316 79.5469 193.579 78.7344 194.09 78.0312C194.6 77.3281 195.288 76.7786 196.152 76.3828C197.022 75.9818 198.004 75.7812 199.098 75.7812C200.202 75.7812 201.168 75.9818 201.996 76.3828C202.824 76.7839 203.467 77.3255 203.926 78.0078C204.389 78.6849 204.618 79.4453 204.613 80.2891C204.618 81.1849 204.34 81.9323 203.777 82.5312C203.22 83.1302 202.493 83.5104 201.598 83.6719V83.7969C202.775 83.9479 203.671 84.3568 204.285 85.0234C204.905 85.6849 205.212 86.513 205.207 87.5078C205.212 88.4193 204.949 89.2292 204.418 89.9375C203.892 90.6458 203.165 91.2031 202.238 91.6094C201.311 92.0156 200.249 92.2187 199.051 92.2187ZM216.396 89V88.1562C216.396 87.5156 216.532 86.9271 216.803 86.3906C217.079 85.849 217.477 85.4167 217.998 85.0937C218.524 84.7656 219.165 84.6016 219.92 84.6016C220.686 84.6016 221.329 84.763 221.85 85.0859C222.376 85.4089 222.771 85.8411 223.037 86.3828C223.308 86.9193 223.443 87.5104 223.443 88.1562V89C223.443 89.6406 223.308 90.2318 223.037 90.7734C222.766 91.3099 222.368 91.7396 221.842 92.0625C221.316 92.3906 220.675 92.5547 219.92 92.5547C219.154 92.5547 218.511 92.3906 217.99 92.0625C217.469 91.7396 217.074 91.3099 216.803 90.7734C216.532 90.2318 216.396 89.6406 216.396 89ZM218.67 88.1562V89C218.67 89.3698 218.758 89.7187 218.936 90.0469C219.118 90.375 219.446 90.5391 219.92 90.5391C220.394 90.5391 220.717 90.3776 220.889 90.0547C221.066 89.7318 221.154 89.3802 221.154 89V88.1562C221.154 87.776 221.071 87.4219 220.904 87.0937C220.738 86.7656 220.41 86.6016 219.92 86.6016C219.451 86.6016 219.126 86.7656 218.943 87.0937C218.761 87.4219 218.67 87.776 218.67 88.1562ZM208.186 79.8438V79C208.186 78.3542 208.324 77.763 208.6 77.2266C208.876 76.6849 209.274 76.2526 209.795 75.9297C210.321 75.6068 210.956 75.4453 211.701 75.4453C212.472 75.4453 213.118 75.6068 213.639 75.9297C214.16 76.2526 214.555 76.6849 214.826 77.2266C215.097 77.763 215.232 78.3542 215.232 79V79.8438C215.232 80.4896 215.094 81.0807 214.818 81.6172C214.548 82.1536 214.149 82.5833 213.623 82.9062C213.102 83.224 212.462 83.3828 211.701 83.3828C210.941 83.3828 210.298 83.2214 209.771 82.8984C209.251 82.5703 208.855 82.1406 208.584 81.6094C208.318 81.0729 208.186 80.4844 208.186 79.8438ZM210.475 79V79.8438C210.475 80.224 210.563 80.5755 210.74 80.8984C210.923 81.2214 211.243 81.3828 211.701 81.3828C212.18 81.3828 212.506 81.2214 212.678 80.8984C212.855 80.5755 212.943 80.224 212.943 79.8438V79C212.943 78.6198 212.86 78.2656 212.693 77.9375C212.527 77.6094 212.196 77.4453 211.701 77.4453C211.238 77.4453 210.917 77.612 210.74 77.9453C210.563 78.2786 210.475 78.6302 210.475 79ZM209.217 92L220.217 76H222.264L211.264 92H209.217Z" fill="#a4b0a2"/>
<path d="M532.391 61V45H538.797C539.974 45 540.956 45.1745 541.742 45.5234C542.529 45.8724 543.12 46.3568 543.516 46.9766C543.911 47.5911 544.109 48.2995 544.109 49.1016C544.109 49.7266 543.984 50.276 543.734 50.75C543.484 51.2187 543.141 51.6042 542.703 51.9062C542.271 52.2031 541.776 52.4141 541.219 52.5391V52.6953C541.828 52.7214 542.398 52.8932 542.93 53.2109C543.466 53.5286 543.901 53.974 544.234 54.5469C544.568 55.1146 544.734 55.7917 544.734 56.5781C544.734 57.4271 544.523 58.1849 544.102 58.8516C543.685 59.513 543.068 60.0365 542.25 60.4219C541.432 60.8073 540.424 61 539.227 61H532.391ZM535.773 58.2344H538.531C539.474 58.2344 540.161 58.0547 540.594 57.6953C541.026 57.3307 541.242 56.8464 541.242 56.2422C541.242 55.7995 541.135 55.4089 540.922 55.0703C540.708 54.7318 540.404 54.4661 540.008 54.2734C539.617 54.0807 539.151 53.9844 538.609 53.9844H535.773V58.2344ZM535.773 51.6953H538.281C538.745 51.6953 539.156 51.6146 539.516 51.4531C539.88 51.2865 540.167 51.0521 540.375 50.75C540.589 50.4479 540.695 50.0859 540.695 49.6641C540.695 49.0859 540.49 48.6198 540.078 48.2656C539.672 47.9115 539.094 47.7344 538.344 47.7344H535.773V51.6953ZM554.568 55.8906V49H557.896V61H554.701V58.8203H554.576C554.305 59.5234 553.855 60.0885 553.225 60.5156C552.6 60.9427 551.837 61.1563 550.936 61.1563C550.133 61.1563 549.428 60.974 548.818 60.6094C548.209 60.2448 547.732 59.7266 547.389 59.0547C547.05 58.3828 546.878 57.5781 546.873 56.6406V49H550.201V56.0469C550.206 56.7552 550.396 57.3151 550.771 57.7266C551.146 58.138 551.649 58.3437 552.279 58.3437C552.68 58.3437 553.055 58.2526 553.404 58.0703C553.753 57.8828 554.035 57.6068 554.248 57.2422C554.467 56.8776 554.574 56.4271 554.568 55.8906ZM560.559 61V49H563.785V51.0937H563.91C564.129 50.349 564.496 49.7865 565.012 49.4063C565.527 49.0208 566.121 48.8281 566.793 48.8281C566.96 48.8281 567.139 48.8385 567.332 48.8594C567.525 48.8802 567.694 48.9089 567.84 48.9453V51.8984C567.684 51.8516 567.467 51.8099 567.191 51.7734C566.915 51.737 566.663 51.7188 566.434 51.7188C565.944 51.7188 565.507 51.8255 565.121 52.0391C564.741 52.2474 564.439 52.5391 564.215 52.9141C563.996 53.2891 563.887 53.7214 563.887 54.2109V61H560.559ZM572.889 54.0625V61H569.561V49H572.732V51.1172H572.873C573.139 50.4193 573.584 49.8672 574.209 49.4609C574.834 49.0495 575.592 48.8438 576.482 48.8438C577.316 48.8438 578.042 49.026 578.662 49.3906C579.282 49.7552 579.764 50.276 580.107 50.9531C580.451 51.625 580.623 52.4271 580.623 53.3594V61H577.295V53.9531C577.3 53.2187 577.113 52.6458 576.732 52.2344C576.352 51.8177 575.829 51.6094 575.162 51.6094C574.714 51.6094 574.318 51.7057 573.975 51.8984C573.636 52.0911 573.37 52.3724 573.178 52.7422C572.99 53.1068 572.894 53.5469 572.889 54.0625ZM595.814 51.6797V54.3203H588.518V51.6797H595.814ZM610.672 45V61H607.289V48.2109H607.195L603.531 50.5078V47.5078L607.492 45H610.672ZM623.232 58V57.1562C623.232 56.5156 623.368 55.9271 623.639 55.3906C623.915 54.849 624.313 54.4167 624.834 54.0937C625.36 53.7656 626.001 53.6016 626.756 53.6016C627.521 53.6016 628.165 53.763 628.686 54.0859C629.212 54.4089 629.607 54.8411 629.873 55.3828C630.144 55.9193 630.279 56.5104 630.279 57.1562V58C630.279 58.6406 630.144 59.2318 629.873 59.7734C629.602 60.3099 629.204 60.7396 628.678 61.0625C628.152 61.3906 627.511 61.5547 626.756 61.5547C625.99 61.5547 625.347 61.3906 624.826 61.0625C624.305 60.7396 623.91 60.3099 623.639 59.7734C623.368 59.2318 623.232 58.6406 623.232 58ZM625.506 57.1562V58C625.506 58.3698 625.594 58.7187 625.771 59.0469C625.954 59.375 626.282 59.5391 626.756 59.5391C627.23 59.5391 627.553 59.3776 627.725 59.0547C627.902 58.7318 627.99 58.3802 627.99 58V57.1562C627.99 56.776 627.907 56.4219 627.74 56.0937C627.574 55.7656 627.245 55.6016 626.756 55.6016C626.287 55.6016 625.962 55.7656 625.779 56.0937C625.597 56.4219 625.506 56.776 625.506 57.1562ZM615.021 48.8438V48C615.021 47.3542 615.16 46.763 615.436 46.2266C615.712 45.6849 616.11 45.2526 616.631 44.9297C617.157 44.6068 617.792 44.4453 618.537 44.4453C619.308 44.4453 619.954 44.6068 620.475 44.9297C620.995 45.2526 621.391 45.6849 621.662 46.2266C621.933 46.763 622.068 47.3542 622.068 48V48.8438C622.068 49.4896 621.93 50.0807 621.654 50.6172C621.383 51.1536 620.985 51.5833 620.459 51.9062C619.938 52.224 619.298 52.3828 618.537 52.3828C617.777 52.3828 617.133 52.2214 616.607 51.8984C616.087 51.5703 615.691 51.1406 615.42 50.6094C615.154 50.0729 615.021 49.4844 615.021 48.8438ZM617.311 48V48.8438C617.311 49.224 617.399 49.5755 617.576 49.8984C617.758 50.2214 618.079 50.3828 618.537 50.3828C619.016 50.3828 619.342 50.2214 619.514 49.8984C619.691 49.5755 619.779 49.224 619.779 48.8438V48C619.779 47.6198 619.696 47.2656 619.529 46.9375C619.363 46.6094 619.032 46.4453 618.537 46.4453C618.074 46.4453 617.753 46.612 617.576 46.9453C617.399 47.2786 617.311 47.6302 617.311 48ZM616.053 61L627.053 45H629.1L618.1 61H616.053Z" fill="#a4b0a2"/>
<path d="M616.391 124V108H622.703C623.911 108 624.943 108.216 625.797 108.648C626.656 109.076 627.31 109.682 627.758 110.469C628.211 111.25 628.438 112.169 628.438 113.227C628.438 114.289 628.208 115.203 627.75 115.969C627.292 116.729 626.628 117.312 625.758 117.719C624.893 118.125 623.846 118.328 622.617 118.328H618.391V115.609H622.07C622.716 115.609 623.253 115.521 623.68 115.344C624.107 115.167 624.424 114.901 624.633 114.547C624.846 114.193 624.953 113.753 624.953 113.227C624.953 112.695 624.846 112.247 624.633 111.883C624.424 111.518 624.104 111.242 623.672 111.055C623.245 110.862 622.706 110.766 622.055 110.766H619.773V124H616.391ZM625.031 116.719L629.008 124H625.273L621.383 116.719H625.031ZM636.041 124.234C634.807 124.234 633.744 123.984 632.854 123.484C631.968 122.979 631.286 122.266 630.807 121.344C630.327 120.417 630.088 119.32 630.088 118.055C630.088 116.82 630.327 115.737 630.807 114.805C631.286 113.872 631.96 113.146 632.83 112.625C633.705 112.104 634.731 111.844 635.908 111.844C636.7 111.844 637.437 111.971 638.119 112.227C638.807 112.477 639.406 112.854 639.916 113.359C640.432 113.865 640.833 114.5 641.119 115.266C641.406 116.026 641.549 116.917 641.549 117.937V118.852H631.416V116.789H638.416C638.416 116.31 638.312 115.885 638.104 115.516C637.895 115.146 637.606 114.857 637.236 114.648C636.872 114.435 636.447 114.328 635.963 114.328C635.458 114.328 635.01 114.445 634.619 114.68C634.234 114.909 633.932 115.219 633.713 115.609C633.494 115.995 633.382 116.424 633.377 116.898V118.859C633.377 119.453 633.486 119.966 633.705 120.398C633.929 120.831 634.244 121.164 634.65 121.398C635.057 121.633 635.538 121.75 636.096 121.75C636.465 121.75 636.804 121.698 637.111 121.594C637.419 121.49 637.682 121.333 637.9 121.125C638.119 120.917 638.286 120.661 638.4 120.359L641.479 120.562C641.322 121.302 641.002 121.948 640.518 122.5C640.038 123.047 639.419 123.474 638.658 123.781C637.903 124.083 637.031 124.234 636.041 124.234ZM646.002 124L642.736 112H646.104L647.963 120.062H648.072L650.01 112H653.314L655.283 120.016H655.385L657.213 112H660.572L657.314 124H653.791L651.729 116.453H651.58L649.518 124H646.002ZM665.77 124.227C665.004 124.227 664.322 124.094 663.723 123.828C663.124 123.557 662.65 123.159 662.301 122.633C661.957 122.102 661.785 121.44 661.785 120.648C661.785 119.982 661.908 119.422 662.152 118.969C662.397 118.516 662.73 118.151 663.152 117.875C663.574 117.599 664.053 117.391 664.59 117.25C665.132 117.109 665.699 117.01 666.293 116.953C666.991 116.88 667.553 116.812 667.98 116.75C668.408 116.682 668.717 116.583 668.91 116.453C669.103 116.323 669.199 116.13 669.199 115.875V115.828C669.199 115.333 669.043 114.951 668.73 114.68C668.423 114.409 667.986 114.273 667.418 114.273C666.819 114.273 666.342 114.406 665.988 114.672C665.634 114.932 665.4 115.26 665.285 115.656L662.207 115.406C662.363 114.677 662.671 114.047 663.129 113.516C663.587 112.979 664.178 112.568 664.902 112.281C665.632 111.99 666.475 111.844 667.434 111.844C668.1 111.844 668.738 111.922 669.348 112.078C669.962 112.234 670.507 112.477 670.98 112.805C671.46 113.133 671.837 113.555 672.113 114.07C672.389 114.581 672.527 115.193 672.527 115.906V124H669.371V122.336H669.277C669.085 122.711 668.827 123.042 668.504 123.328C668.181 123.609 667.793 123.831 667.34 123.992C666.887 124.148 666.363 124.227 665.77 124.227ZM666.723 121.93C667.212 121.93 667.645 121.833 668.02 121.641C668.395 121.443 668.689 121.177 668.902 120.844C669.116 120.51 669.223 120.133 669.223 119.711V118.438C669.118 118.505 668.975 118.568 668.793 118.625C668.616 118.677 668.415 118.727 668.191 118.773C667.967 118.815 667.743 118.854 667.52 118.891C667.296 118.922 667.092 118.951 666.91 118.977C666.52 119.034 666.178 119.125 665.887 119.25C665.595 119.375 665.368 119.544 665.207 119.758C665.046 119.966 664.965 120.227 664.965 120.539C664.965 120.992 665.129 121.339 665.457 121.578C665.79 121.812 666.212 121.93 666.723 121.93ZM675.109 124V112H678.336V114.094H678.461C678.68 113.349 679.047 112.786 679.563 112.406C680.078 112.021 680.672 111.828 681.344 111.828C681.51 111.828 681.69 111.839 681.883 111.859C682.076 111.88 682.245 111.909 682.391 111.945V114.898C682.234 114.852 682.018 114.81 681.742 114.773C681.466 114.737 681.214 114.719 680.984 114.719C680.495 114.719 680.057 114.826 679.672 115.039C679.292 115.247 678.99 115.539 678.766 115.914C678.547 116.289 678.438 116.721 678.438 117.211V124H675.109ZM687.975 124.195C687.063 124.195 686.238 123.961 685.498 123.492C684.764 123.018 684.18 122.323 683.748 121.406C683.321 120.484 683.107 119.354 683.107 118.016C683.107 116.641 683.329 115.497 683.771 114.586C684.214 113.669 684.803 112.984 685.537 112.531C686.277 112.073 687.087 111.844 687.967 111.844C688.639 111.844 689.199 111.958 689.646 112.188C690.1 112.411 690.464 112.693 690.74 113.031C691.021 113.365 691.235 113.693 691.381 114.016H691.482V108H694.803V124H691.521V122.078H691.381C691.225 122.411 691.003 122.742 690.717 123.07C690.436 123.393 690.068 123.661 689.615 123.875C689.167 124.089 688.62 124.195 687.975 124.195ZM689.029 121.547C689.566 121.547 690.019 121.401 690.389 121.109C690.764 120.812 691.05 120.398 691.248 119.867C691.451 119.336 691.553 118.714 691.553 118C691.553 117.286 691.454 116.667 691.256 116.141C691.058 115.615 690.771 115.208 690.396 114.922C690.021 114.635 689.566 114.492 689.029 114.492C688.482 114.492 688.021 114.641 687.646 114.937C687.271 115.234 686.988 115.646 686.795 116.172C686.602 116.698 686.506 117.307 686.506 118C686.506 118.698 686.602 119.315 686.795 119.852C686.993 120.383 687.277 120.799 687.646 121.102C688.021 121.398 688.482 121.547 689.029 121.547ZM707.523 115.422L704.477 115.609C704.424 115.349 704.313 115.115 704.141 114.906C703.969 114.693 703.742 114.523 703.461 114.398C703.185 114.268 702.854 114.203 702.469 114.203C701.953 114.203 701.518 114.312 701.164 114.531C700.81 114.745 700.633 115.031 700.633 115.391C700.633 115.677 700.747 115.919 700.977 116.117C701.206 116.315 701.599 116.474 702.156 116.594L704.328 117.031C705.495 117.271 706.365 117.656 706.938 118.187C707.51 118.719 707.797 119.417 707.797 120.281C707.797 121.068 707.565 121.758 707.102 122.352C706.643 122.945 706.013 123.409 705.211 123.742C704.414 124.07 703.495 124.234 702.453 124.234C700.865 124.234 699.599 123.904 698.656 123.242C697.719 122.576 697.169 121.669 697.008 120.523L700.281 120.352C700.38 120.836 700.62 121.206 701 121.461C701.38 121.711 701.867 121.836 702.461 121.836C703.044 121.836 703.513 121.724 703.867 121.5C704.227 121.271 704.409 120.977 704.414 120.617C704.409 120.315 704.281 120.068 704.031 119.875C703.781 119.677 703.396 119.526 702.875 119.422L700.797 119.008C699.625 118.773 698.753 118.367 698.18 117.789C697.612 117.211 697.328 116.474 697.328 115.578C697.328 114.807 697.536 114.143 697.953 113.586C698.375 113.029 698.966 112.599 699.727 112.297C700.492 111.995 701.388 111.844 702.414 111.844C703.93 111.844 705.122 112.164 705.992 112.805C706.867 113.445 707.378 114.318 707.523 115.422ZM721.367 112V114.5H714.141V112H721.367ZM715.781 109.125H719.109V120.312C719.109 120.62 719.156 120.859 719.25 121.031C719.344 121.198 719.474 121.315 719.641 121.383C719.813 121.451 720.01 121.484 720.234 121.484C720.391 121.484 720.547 121.471 720.703 121.445C720.859 121.414 720.979 121.391 721.063 121.375L721.586 123.852C721.419 123.904 721.185 123.964 720.883 124.031C720.581 124.104 720.214 124.148 719.781 124.164C718.979 124.195 718.276 124.089 717.672 123.844C717.073 123.599 716.607 123.219 716.273 122.703C715.94 122.187 715.776 121.536 715.781 120.75V109.125ZM728.828 124.234C727.615 124.234 726.565 123.977 725.68 123.461C724.799 122.94 724.12 122.216 723.641 121.289C723.161 120.357 722.922 119.276 722.922 118.047C722.922 116.807 723.161 115.724 723.641 114.797C724.12 113.865 724.799 113.141 725.68 112.625C726.565 112.104 727.615 111.844 728.828 111.844C730.042 111.844 731.089 112.104 731.969 112.625C732.854 113.141 733.536 113.865 734.016 114.797C734.495 115.724 734.734 116.807 734.734 118.047C734.734 119.276 734.495 120.357 734.016 121.289C733.536 122.216 732.854 122.94 731.969 123.461C731.089 123.977 730.042 124.234 728.828 124.234ZM728.844 121.656C729.396 121.656 729.857 121.5 730.227 121.188C730.596 120.87 730.875 120.437 731.063 119.891C731.255 119.344 731.352 118.721 731.352 118.023C731.352 117.326 731.255 116.703 731.063 116.156C730.875 115.609 730.596 115.177 730.227 114.859C729.857 114.542 729.396 114.383 728.844 114.383C728.286 114.383 727.818 114.542 727.438 114.859C727.063 115.177 726.779 115.609 726.586 116.156C726.398 116.703 726.305 117.326 726.305 118.023C726.305 118.721 726.398 119.344 726.586 119.891C726.779 120.437 727.063 120.87 727.438 121.188C727.818 121.5 728.286 121.656 728.844 121.656ZM744.811 124H741.186L746.709 108H751.068L756.584 124H752.959L748.951 111.656H748.826L744.811 124ZM744.584 117.711H753.146V120.352H744.584V117.711ZM761.893 108V124H758.51V108H761.893ZM764.676 124V108H775.27V110.789H768.059V114.602H774.566V117.391H768.059V124H764.676ZM777.545 124V108H780.928V121.211H787.787V124H777.545ZM804.107 116C804.107 117.745 803.777 119.229 803.115 120.453C802.459 121.677 801.563 122.612 800.428 123.258C799.298 123.898 798.027 124.219 796.615 124.219C795.193 124.219 793.917 123.896 792.787 123.25C791.657 122.604 790.764 121.669 790.107 120.445C789.451 119.221 789.123 117.74 789.123 116C789.123 114.255 789.451 112.771 790.107 111.547C790.764 110.323 791.657 109.391 792.787 108.75C793.917 108.104 795.193 107.781 796.615 107.781C798.027 107.781 799.298 108.104 800.428 108.75C801.563 109.391 802.459 110.323 803.115 111.547C803.777 112.771 804.107 114.255 804.107 116ZM800.678 116C800.678 114.87 800.508 113.917 800.17 113.141C799.837 112.365 799.365 111.776 798.756 111.375C798.146 110.974 797.433 110.773 796.615 110.773C795.798 110.773 795.084 110.974 794.475 111.375C793.865 111.776 793.391 112.365 793.053 113.141C792.719 113.917 792.553 114.87 792.553 116C792.553 117.13 792.719 118.083 793.053 118.859C793.391 119.635 793.865 120.224 794.475 120.625C795.084 121.026 795.798 121.227 796.615 121.227C797.433 121.227 798.146 121.026 798.756 120.625C799.365 120.224 799.837 119.635 800.17 118.859C800.508 118.083 800.678 117.13 800.678 116ZM806.613 124V108H812.926C814.139 108 815.173 108.232 816.027 108.695C816.882 109.154 817.533 109.792 817.98 110.609C818.434 111.422 818.66 112.359 818.66 113.422C818.66 114.484 818.431 115.422 817.973 116.234C817.514 117.047 816.85 117.68 815.98 118.133C815.116 118.586 814.069 118.812 812.84 118.812H808.816V116.102H812.293C812.944 116.102 813.48 115.99 813.902 115.766C814.329 115.536 814.647 115.221 814.855 114.82C815.069 114.414 815.176 113.948 815.176 113.422C815.176 112.891 815.069 112.427 814.855 112.031C814.647 111.63 814.329 111.32 813.902 111.102C813.475 110.878 812.934 110.766 812.277 110.766H809.996V124H806.613ZM820.857 124V108H827.17C828.383 108 829.417 108.232 830.271 108.695C831.126 109.154 831.777 109.792 832.225 110.609C832.678 111.422 832.904 112.359 832.904 113.422C832.904 114.484 832.675 115.422 832.217 116.234C831.758 117.047 831.094 117.68 830.225 118.133C829.36 118.586 828.313 118.812 827.084 118.812H823.061V116.102H826.537C827.188 116.102 827.725 115.99 828.146 115.766C828.574 115.536 828.891 115.221 829.1 114.82C829.313 114.414 829.42 113.948 829.42 113.422C829.42 112.891 829.313 112.427 829.1 112.031C828.891 111.63 828.574 111.32 828.146 111.102C827.719 110.878 827.178 110.766 826.521 110.766H824.24V124H820.857ZM836.012 124H832.387L837.91 108H842.27L847.785 124H844.16L840.152 111.656H840.027L836.012 124ZM835.785 117.711H844.348V120.352H835.785V117.711ZM856.617 107.25L851.461 126.406H848.594L853.75 107.25H856.617ZM858.283 124V108H869.064V110.789H861.666V114.602H868.51V117.391H861.666V121.211H869.096V124H858.283ZM871.145 110.789V108H884.285V110.789H879.387V124H876.043V110.789H871.145ZM886.449 124V108H889.832V114.602H896.699V108H900.074V124H896.699V117.391H889.832V124H886.449ZM907.955 124V108H911.338V121.211H918.197V124H907.955ZM920.437 124V108H926.75C927.964 108 928.997 108.232 929.852 108.695C930.706 109.154 931.357 109.792 931.805 110.609C932.258 111.422 932.484 112.359 932.484 113.422C932.484 114.484 932.255 115.422 931.797 116.234C931.339 117.047 930.674 117.68 929.805 118.133C928.94 118.586 927.893 118.812 926.664 118.812H922.641V116.102H926.117C926.768 116.102 927.305 115.99 927.727 115.766C928.154 115.536 928.471 115.221 928.68 114.82C928.893 114.414 929 113.948 929 113.422C929 112.891 928.893 112.427 928.68 112.031C928.471 111.63 928.154 111.32 927.727 111.102C927.299 110.878 926.758 110.766 926.102 110.766H923.82V124H920.437ZM947.188 114.68V117.32H939.891V114.68H947.188ZM955.084 124V121.562L960.779 116.289C961.264 115.82 961.67 115.398 961.998 115.023C962.331 114.648 962.584 114.281 962.756 113.922C962.928 113.557 963.014 113.164 963.014 112.742C963.014 112.273 962.907 111.87 962.693 111.531C962.48 111.187 962.188 110.924 961.818 110.742C961.449 110.555 961.029 110.461 960.561 110.461C960.071 110.461 959.644 110.56 959.279 110.758C958.915 110.956 958.633 111.24 958.436 111.609C958.238 111.979 958.139 112.419 958.139 112.93H954.928C954.928 111.883 955.165 110.974 955.639 110.203C956.113 109.432 956.777 108.836 957.631 108.414C958.485 107.992 959.469 107.781 960.584 107.781C961.73 107.781 962.727 107.984 963.576 108.391C964.43 108.792 965.094 109.349 965.568 110.062C966.042 110.776 966.279 111.594 966.279 112.516C966.279 113.12 966.16 113.716 965.92 114.305C965.686 114.893 965.266 115.547 964.662 116.266C964.058 116.979 963.206 117.836 962.107 118.836L959.771 121.125V121.234H966.49V124H955.084ZM977.699 121V120.156C977.699 119.516 977.835 118.927 978.105 118.391C978.382 117.849 978.78 117.417 979.301 117.094C979.827 116.766 980.467 116.602 981.223 116.602C981.988 116.602 982.632 116.763 983.152 117.086C983.678 117.409 984.074 117.841 984.34 118.383C984.611 118.919 984.746 119.51 984.746 120.156V121C984.746 121.641 984.611 122.232 984.34 122.773C984.069 123.31 983.671 123.74 983.145 124.063C982.618 124.391 981.978 124.555 981.223 124.555C980.457 124.555 979.814 124.391 979.293 124.063C978.772 123.74 978.376 123.31 978.105 122.773C977.835 122.232 977.699 121.641 977.699 121ZM979.973 120.156V121C979.973 121.37 980.061 121.719 980.238 122.047C980.421 122.375 980.749 122.539 981.223 122.539C981.697 122.539 982.02 122.378 982.191 122.055C982.368 121.732 982.457 121.38 982.457 121V120.156C982.457 119.776 982.374 119.422 982.207 119.094C982.04 118.766 981.712 118.602 981.223 118.602C980.754 118.602 980.428 118.766 980.246 119.094C980.064 119.422 979.973 119.776 979.973 120.156ZM969.488 111.844V111C969.488 110.354 969.626 109.763 969.902 109.227C970.178 108.685 970.577 108.253 971.098 107.93C971.624 107.607 972.259 107.445 973.004 107.445C973.775 107.445 974.421 107.607 974.941 107.93C975.462 108.253 975.858 108.685 976.129 109.227C976.4 109.763 976.535 110.354 976.535 111V111.844C976.535 112.49 976.397 113.081 976.121 113.617C975.85 114.154 975.452 114.583 974.926 114.906C974.405 115.224 973.764 115.383 973.004 115.383C972.243 115.383 971.6 115.221 971.074 114.898C970.553 114.57 970.158 114.141 969.887 113.609C969.621 113.073 969.488 112.484 969.488 111.844ZM971.777 111V111.844C971.777 112.224 971.866 112.576 972.043 112.898C972.225 113.221 972.546 113.383 973.004 113.383C973.483 113.383 973.809 113.221 973.98 112.898C974.158 112.576 974.246 112.224 974.246 111.844V111C974.246 110.62 974.163 110.266 973.996 109.937C973.829 109.609 973.499 109.445 973.004 109.445C972.54 109.445 972.22 109.612 972.043 109.945C971.866 110.279 971.777 110.63 971.777 111ZM970.52 124L981.52 108H983.566L972.566 124H970.52Z" fill="#a4b0a2"/>
<path d="M622.063 359H616.391V343H622.109C623.719 343 625.104 343.32 626.266 343.961C627.427 344.596 628.32 345.51 628.945 346.703C629.576 347.896 629.891 349.323 629.891 350.984C629.891 352.651 629.576 354.083 628.945 355.281C628.32 356.479 627.422 357.398 626.25 358.039C625.083 358.68 623.688 359 622.063 359ZM619.773 356.102H621.922C622.922 356.102 623.763 355.924 624.445 355.57C625.133 355.211 625.648 354.656 625.992 353.906C626.341 353.151 626.516 352.177 626.516 350.984C626.516 349.802 626.341 348.836 625.992 348.086C625.648 347.336 625.135 346.784 624.453 346.43C623.771 346.076 622.93 345.898 621.93 345.898H619.773V356.102ZM632.334 359V347H635.662V359H632.334ZM634.006 345.453C633.511 345.453 633.087 345.289 632.732 344.961C632.383 344.628 632.209 344.229 632.209 343.766C632.209 343.307 632.383 342.914 632.732 342.586C633.087 342.253 633.511 342.086 634.006 342.086C634.501 342.086 634.923 342.253 635.271 342.586C635.626 342.914 635.803 343.307 635.803 343.766C635.803 344.229 635.626 344.628 635.271 344.961C634.923 345.289 634.501 345.453 634.006 345.453ZM649.516 347L645.32 359H641.57L637.375 347H640.891L643.383 355.586H643.508L645.992 347H649.516ZM651.219 359V347H654.547V359H651.219ZM652.891 345.453C652.396 345.453 651.971 345.289 651.617 344.961C651.268 344.628 651.094 344.229 651.094 343.766C651.094 343.307 651.268 342.914 651.617 342.586C651.971 342.253 652.396 342.086 652.891 342.086C653.385 342.086 653.807 342.253 654.156 342.586C654.51 342.914 654.688 343.307 654.688 343.766C654.688 344.229 654.51 344.628 654.156 344.961C653.807 345.289 653.385 345.453 652.891 345.453ZM661.635 359.195C660.723 359.195 659.898 358.961 659.158 358.492C658.424 358.018 657.84 357.323 657.408 356.406C656.981 355.484 656.768 354.354 656.768 353.016C656.768 351.641 656.989 350.497 657.432 349.586C657.874 348.669 658.463 347.984 659.197 347.531C659.937 347.073 660.747 346.844 661.627 346.844C662.299 346.844 662.859 346.958 663.307 347.188C663.76 347.411 664.124 347.693 664.4 348.031C664.682 348.365 664.895 348.693 665.041 349.016H665.143V343H668.463V359H665.182V357.078H665.041C664.885 357.411 664.663 357.742 664.377 358.07C664.096 358.393 663.729 358.661 663.275 358.875C662.827 359.089 662.281 359.195 661.635 359.195ZM662.689 356.547C663.226 356.547 663.679 356.401 664.049 356.109C664.424 355.812 664.71 355.398 664.908 354.867C665.111 354.336 665.213 353.714 665.213 353C665.213 352.286 665.114 351.667 664.916 351.141C664.718 350.615 664.432 350.208 664.057 349.922C663.682 349.635 663.226 349.492 662.689 349.492C662.143 349.492 661.682 349.641 661.307 349.937C660.932 350.234 660.648 350.646 660.455 351.172C660.262 351.698 660.166 352.307 660.166 353C660.166 353.698 660.262 354.315 660.455 354.852C660.653 355.383 660.937 355.799 661.307 356.102C661.682 356.398 662.143 356.547 662.689 356.547ZM676.668 359.234C675.434 359.234 674.371 358.984 673.48 358.484C672.595 357.979 671.913 357.266 671.434 356.344C670.954 355.417 670.715 354.32 670.715 353.055C670.715 351.82 670.954 350.737 671.434 349.805C671.913 348.872 672.587 348.146 673.457 347.625C674.332 347.104 675.358 346.844 676.535 346.844C677.327 346.844 678.064 346.971 678.746 347.227C679.434 347.477 680.033 347.854 680.543 348.359C681.059 348.865 681.46 349.5 681.746 350.266C682.033 351.026 682.176 351.917 682.176 352.937V353.852H672.043V351.789H679.043C679.043 351.31 678.939 350.885 678.73 350.516C678.522 350.146 678.233 349.857 677.863 349.648C677.499 349.435 677.074 349.328 676.59 349.328C676.085 349.328 675.637 349.445 675.246 349.68C674.861 349.909 674.559 350.219 674.34 350.609C674.121 350.995 674.009 351.424 674.004 351.898V353.859C674.004 354.453 674.113 354.966 674.332 355.398C674.556 355.831 674.871 356.164 675.277 356.398C675.684 356.633 676.165 356.75 676.723 356.75C677.092 356.75 677.431 356.698 677.738 356.594C678.046 356.49 678.309 356.333 678.527 356.125C678.746 355.917 678.913 355.661 679.027 355.359L682.105 355.562C681.949 356.302 681.629 356.948 681.145 357.5C680.665 358.047 680.046 358.474 679.285 358.781C678.53 359.083 677.658 359.234 676.668 359.234ZM687.676 352.063V359H684.348V347H687.52V349.117H687.66C687.926 348.419 688.371 347.867 688.996 347.461C689.621 347.049 690.379 346.844 691.27 346.844C692.103 346.844 692.829 347.026 693.449 347.391C694.069 347.755 694.551 348.276 694.895 348.953C695.238 349.625 695.41 350.427 695.41 351.359V359H692.082V351.953C692.087 351.219 691.9 350.646 691.52 350.234C691.139 349.818 690.616 349.609 689.949 349.609C689.501 349.609 689.105 349.706 688.762 349.898C688.423 350.091 688.158 350.372 687.965 350.742C687.777 351.107 687.681 351.547 687.676 352.063ZM702.455 359.195C701.544 359.195 700.718 358.961 699.979 358.492C699.244 358.018 698.661 357.323 698.229 356.406C697.801 355.484 697.588 354.354 697.588 353.016C697.588 351.641 697.809 350.497 698.252 349.586C698.695 348.669 699.283 347.984 700.018 347.531C700.757 347.073 701.567 346.844 702.447 346.844C703.119 346.844 703.679 346.958 704.127 347.188C704.58 347.411 704.945 347.693 705.221 348.031C705.502 348.365 705.715 348.693 705.861 349.016H705.963V343H709.283V359H706.002V357.078H705.861C705.705 357.411 705.484 357.742 705.197 358.07C704.916 358.393 704.549 358.661 704.096 358.875C703.648 359.089 703.101 359.195 702.455 359.195ZM703.51 356.547C704.046 356.547 704.499 356.401 704.869 356.109C705.244 355.812 705.531 355.398 705.729 354.867C705.932 354.336 706.033 353.714 706.033 353C706.033 352.286 705.934 351.667 705.736 351.141C705.538 350.615 705.252 350.208 704.877 349.922C704.502 349.635 704.046 349.492 703.51 349.492C702.963 349.492 702.502 349.641 702.127 349.937C701.752 350.234 701.468 350.646 701.275 351.172C701.083 351.698 700.986 352.307 700.986 353C700.986 353.698 701.083 354.315 701.275 354.852C701.473 355.383 701.757 355.799 702.127 356.102C702.502 356.398 702.963 356.547 703.51 356.547ZM722.004 350.422L718.957 350.609C718.905 350.349 718.793 350.115 718.621 349.906C718.449 349.693 718.223 349.523 717.941 349.398C717.665 349.268 717.335 349.203 716.949 349.203C716.434 349.203 715.999 349.312 715.645 349.531C715.29 349.745 715.113 350.031 715.113 350.391C715.113 350.677 715.228 350.919 715.457 351.117C715.686 351.315 716.079 351.474 716.637 351.594L718.809 352.031C719.975 352.271 720.845 352.656 721.418 353.187C721.991 353.719 722.277 354.417 722.277 355.281C722.277 356.068 722.046 356.758 721.582 357.352C721.124 357.945 720.493 358.409 719.691 358.742C718.895 359.07 717.975 359.234 716.934 359.234C715.345 359.234 714.079 358.904 713.137 358.242C712.199 357.576 711.65 356.669 711.488 355.523L714.762 355.352C714.861 355.836 715.1 356.206 715.48 356.461C715.861 356.711 716.348 356.836 716.941 356.836C717.525 356.836 717.993 356.724 718.348 356.5C718.707 356.271 718.889 355.977 718.895 355.617C718.889 355.315 718.762 355.068 718.512 354.875C718.262 354.677 717.876 354.526 717.355 354.422L715.277 354.008C714.105 353.773 713.233 353.367 712.66 352.789C712.092 352.211 711.809 351.474 711.809 350.578C711.809 349.807 712.017 349.143 712.434 348.586C712.855 348.029 713.447 347.599 714.207 347.297C714.973 346.995 715.868 346.844 716.895 346.844C718.41 346.844 719.603 347.164 720.473 347.805C721.348 348.445 721.858 349.318 722.004 350.422ZM735.848 347V349.5H728.621V347H735.848ZM730.262 344.125H733.59V355.312C733.59 355.62 733.637 355.859 733.73 356.031C733.824 356.198 733.954 356.315 734.121 356.383C734.293 356.451 734.491 356.484 734.715 356.484C734.871 356.484 735.027 356.471 735.184 356.445C735.34 356.414 735.46 356.391 735.543 356.375L736.066 358.852C735.9 358.904 735.665 358.964 735.363 359.031C735.061 359.104 734.694 359.148 734.262 359.164C733.46 359.195 732.757 359.089 732.152 358.844C731.553 358.599 731.087 358.219 730.754 357.703C730.421 357.187 730.257 356.536 730.262 355.75V344.125ZM743.309 359.234C742.095 359.234 741.046 358.977 740.16 358.461C739.28 357.94 738.6 357.216 738.121 356.289C737.642 355.357 737.402 354.276 737.402 353.047C737.402 351.807 737.642 350.724 738.121 349.797C738.6 348.865 739.28 348.141 740.16 347.625C741.046 347.104 742.095 346.844 743.309 346.844C744.522 346.844 745.569 347.104 746.449 347.625C747.335 348.141 748.017 348.865 748.496 349.797C748.975 350.724 749.215 351.807 749.215 353.047C749.215 354.276 748.975 355.357 748.496 356.289C748.017 357.216 747.335 357.94 746.449 358.461C745.569 358.977 744.522 359.234 743.309 359.234ZM743.324 356.656C743.876 356.656 744.337 356.5 744.707 356.188C745.077 355.87 745.355 355.437 745.543 354.891C745.736 354.344 745.832 353.721 745.832 353.023C745.832 352.326 745.736 351.703 745.543 351.156C745.355 350.609 745.077 350.177 744.707 349.859C744.337 349.542 743.876 349.383 743.324 349.383C742.767 349.383 742.298 349.542 741.918 349.859C741.543 350.177 741.259 350.609 741.066 351.156C740.879 351.703 740.785 352.326 740.785 353.023C740.785 353.721 740.879 354.344 741.066 354.891C741.259 355.437 741.543 355.87 741.918 356.188C742.298 356.5 742.767 356.656 743.324 356.656ZM759.291 359H755.666L761.189 343H765.549L771.064 359H767.439L763.432 346.656H763.307L759.291 359ZM759.064 352.711H767.627V355.352H759.064V352.711ZM776.373 343V359H772.99V343H776.373ZM779.156 359V343H789.75V345.789H782.539V349.602H789.047V352.391H782.539V359H779.156ZM792.025 359V343H795.408V356.211H802.268V359H792.025ZM818.588 351C818.588 352.745 818.257 354.229 817.596 355.453C816.939 356.677 816.044 357.612 814.908 358.258C813.778 358.898 812.507 359.219 811.096 359.219C809.674 359.219 808.398 358.896 807.268 358.25C806.137 357.604 805.244 356.669 804.588 355.445C803.932 354.221 803.604 352.74 803.604 351C803.604 349.255 803.932 347.771 804.588 346.547C805.244 345.323 806.137 344.391 807.268 343.75C808.398 343.104 809.674 342.781 811.096 342.781C812.507 342.781 813.778 343.104 814.908 343.75C816.044 344.391 816.939 345.323 817.596 346.547C818.257 347.771 818.588 349.255 818.588 351ZM815.158 351C815.158 349.87 814.989 348.917 814.65 348.141C814.317 347.365 813.846 346.776 813.236 346.375C812.627 345.974 811.913 345.773 811.096 345.773C810.278 345.773 809.564 345.974 808.955 346.375C808.346 346.776 807.872 347.365 807.533 348.141C807.2 348.917 807.033 349.87 807.033 351C807.033 352.13 807.2 353.083 807.533 353.859C807.872 354.635 808.346 355.224 808.955 355.625C809.564 356.026 810.278 356.227 811.096 356.227C811.913 356.227 812.627 356.026 813.236 355.625C813.846 355.224 814.317 354.635 814.65 353.859C814.989 353.083 815.158 352.13 815.158 351ZM821.094 359V343H827.406C828.62 343 829.654 343.232 830.508 343.695C831.362 344.154 832.013 344.792 832.461 345.609C832.914 346.422 833.141 347.359 833.141 348.422C833.141 349.484 832.911 350.422 832.453 351.234C831.995 352.047 831.331 352.68 830.461 353.133C829.596 353.586 828.549 353.812 827.32 353.812H823.297V351.102H826.773C827.424 351.102 827.961 350.99 828.383 350.766C828.81 350.536 829.128 350.221 829.336 349.82C829.549 349.414 829.656 348.948 829.656 348.422C829.656 347.891 829.549 347.427 829.336 347.031C829.128 346.63 828.81 346.32 828.383 346.102C827.956 345.878 827.414 345.766 826.758 345.766H824.477V359H821.094ZM835.338 359V343H841.65C842.864 343 843.898 343.232 844.752 343.695C845.606 344.154 846.257 344.792 846.705 345.609C847.158 346.422 847.385 347.359 847.385 348.422C847.385 349.484 847.156 350.422 846.697 351.234C846.239 352.047 845.575 352.68 844.705 353.133C843.84 353.586 842.794 353.812 841.564 353.812H837.541V351.102H841.018C841.669 351.102 842.205 350.99 842.627 350.766C843.054 350.536 843.372 350.221 843.58 349.82C843.794 349.414 843.9 348.948 843.9 348.422C843.9 347.891 843.794 347.427 843.58 347.031C843.372 346.63 843.054 346.32 842.627 346.102C842.2 345.878 841.658 345.766 841.002 345.766H838.721V359H835.338ZM850.492 359H846.867L852.391 343H856.75L862.266 359H858.641L854.633 346.656H854.508L850.492 359ZM850.266 352.711H858.828V355.352H850.266V352.711ZM869.283 359V343H872.666V349.602H879.533V343H882.908V359H879.533V352.391H872.666V359H869.283ZM891.057 359.234C889.843 359.234 888.794 358.977 887.908 358.461C887.028 357.94 886.348 357.216 885.869 356.289C885.39 355.357 885.15 354.276 885.15 353.047C885.15 351.807 885.39 350.724 885.869 349.797C886.348 348.865 887.028 348.141 887.908 347.625C888.794 347.104 889.843 346.844 891.057 346.844C892.27 346.844 893.317 347.104 894.197 347.625C895.083 348.141 895.765 348.865 896.244 349.797C896.723 350.724 896.963 351.807 896.963 353.047C896.963 354.276 896.723 355.357 896.244 356.289C895.765 357.216 895.083 357.94 894.197 358.461C893.317 358.977 892.27 359.234 891.057 359.234ZM891.072 356.656C891.624 356.656 892.085 356.5 892.455 356.188C892.825 355.87 893.104 355.437 893.291 354.891C893.484 354.344 893.58 353.721 893.58 353.023C893.58 352.326 893.484 351.703 893.291 351.156C893.104 350.609 892.825 350.177 892.455 349.859C892.085 349.542 891.624 349.383 891.072 349.383C890.515 349.383 890.046 349.542 889.666 349.859C889.291 350.177 889.007 350.609 888.814 351.156C888.627 351.703 888.533 352.326 888.533 353.023C888.533 353.721 888.627 354.344 888.814 354.891C889.007 355.437 889.291 355.87 889.666 356.188C890.046 356.5 890.515 356.656 891.072 356.656ZM902.455 343V359H899.127V343H902.455ZM909.543 359.195C908.632 359.195 907.806 358.961 907.066 358.492C906.332 358.018 905.749 357.323 905.316 356.406C904.889 355.484 904.676 354.354 904.676 353.016C904.676 351.641 904.897 350.497 905.34 349.586C905.783 348.669 906.371 347.984 907.105 347.531C907.845 347.073 908.655 346.844 909.535 346.844C910.207 346.844 910.767 346.958 911.215 347.188C911.668 347.411 912.033 347.693 912.309 348.031C912.59 348.365 912.803 348.693 912.949 349.016H913.051V343H916.371V359H913.09V357.078H912.949C912.793 357.411 912.572 357.742 912.285 358.07C912.004 358.393 911.637 358.661 911.184 358.875C910.736 359.089 910.189 359.195 909.543 359.195ZM910.598 356.547C911.134 356.547 911.587 356.401 911.957 356.109C912.332 355.812 912.618 355.398 912.816 354.867C913.02 354.336 913.121 353.714 913.121 353C913.121 352.286 913.022 351.667 912.824 351.141C912.626 350.615 912.34 350.208 911.965 349.922C911.59 349.635 911.134 349.492 910.598 349.492C910.051 349.492 909.59 349.641 909.215 349.937C908.84 350.234 908.556 350.646 908.363 351.172C908.171 351.698 908.074 352.307 908.074 353C908.074 353.698 908.171 354.315 908.363 354.852C908.561 355.383 908.845 355.799 909.215 356.102C909.59 356.398 910.051 356.547 910.598 356.547ZM924.576 359.234C923.342 359.234 922.279 358.984 921.389 358.484C920.503 357.979 919.821 357.266 919.342 356.344C918.863 355.417 918.623 354.32 918.623 353.055C918.623 351.82 918.863 350.737 919.342 349.805C919.821 348.872 920.495 348.146 921.365 347.625C922.24 347.104 923.266 346.844 924.443 346.844C925.235 346.844 925.972 346.971 926.654 347.227C927.342 347.477 927.941 347.854 928.451 348.359C928.967 348.865 929.368 349.5 929.654 350.266C929.941 351.026 930.084 351.917 930.084 352.937V353.852H919.951V351.789H926.951C926.951 351.31 926.847 350.885 926.639 350.516C926.43 350.146 926.141 349.857 925.771 349.648C925.407 349.435 924.982 349.328 924.498 349.328C923.993 349.328 923.545 349.445 923.154 349.68C922.769 349.909 922.467 350.219 922.248 350.609C922.029 350.995 921.917 351.424 921.912 351.898V353.859C921.912 354.453 922.021 354.966 922.24 355.398C922.464 355.831 922.779 356.164 923.186 356.398C923.592 356.633 924.074 356.75 924.631 356.75C925.001 356.75 925.339 356.698 925.646 356.594C925.954 356.49 926.217 356.333 926.436 356.125C926.654 355.917 926.821 355.661 926.936 355.359L930.014 355.562C929.857 356.302 929.537 356.948 929.053 357.5C928.574 358.047 927.954 358.474 927.193 358.781C926.438 359.083 925.566 359.234 924.576 359.234ZM932.256 359V347H935.482V349.094H935.607C935.826 348.349 936.193 347.786 936.709 347.406C937.225 347.021 937.818 346.828 938.49 346.828C938.657 346.828 938.837 346.839 939.029 346.859C939.222 346.88 939.391 346.909 939.537 346.945V349.898C939.381 349.852 939.165 349.81 938.889 349.773C938.613 349.737 938.36 349.719 938.131 349.719C937.641 349.719 937.204 349.826 936.818 350.039C936.438 350.247 936.136 350.539 935.912 350.914C935.693 351.289 935.584 351.721 935.584 352.211V359H932.256ZM951.242 350.422L948.195 350.609C948.143 350.349 948.031 350.115 947.859 349.906C947.688 349.693 947.461 349.523 947.18 349.398C946.904 349.268 946.573 349.203 946.188 349.203C945.672 349.203 945.237 349.312 944.883 349.531C944.529 349.745 944.352 350.031 944.352 350.391C944.352 350.677 944.466 350.919 944.695 351.117C944.924 351.315 945.318 351.474 945.875 351.594L948.047 352.031C949.214 352.271 950.083 352.656 950.656 353.187C951.229 353.719 951.516 354.417 951.516 355.281C951.516 356.068 951.284 356.758 950.82 357.352C950.362 357.945 949.732 358.409 948.93 358.742C948.133 359.07 947.214 359.234 946.172 359.234C944.583 359.234 943.318 358.904 942.375 358.242C941.438 357.576 940.888 356.669 940.727 355.523L944 355.352C944.099 355.836 944.339 356.206 944.719 356.461C945.099 356.711 945.586 356.836 946.18 356.836C946.763 356.836 947.232 356.724 947.586 356.5C947.945 356.271 948.128 355.977 948.133 355.617C948.128 355.315 948 355.068 947.75 354.875C947.5 354.677 947.115 354.526 946.594 354.422L944.516 354.008C943.344 353.773 942.471 353.367 941.898 352.789C941.331 352.211 941.047 351.474 941.047 350.578C941.047 349.807 941.255 349.143 941.672 348.586C942.094 348.029 942.685 347.599 943.445 347.297C944.211 346.995 945.107 346.844 946.133 346.844C947.648 346.844 948.841 347.164 949.711 347.805C950.586 348.445 951.096 349.318 951.242 350.422ZM966.18 349.68V352.32H958.883V349.68H966.18ZM979.99 359.219C978.824 359.219 977.785 359.018 976.873 358.617C975.967 358.211 975.251 357.654 974.725 356.945C974.204 356.232 973.936 355.409 973.92 354.477H977.326C977.347 354.867 977.475 355.211 977.709 355.508C977.949 355.799 978.266 356.026 978.662 356.188C979.058 356.349 979.503 356.43 979.998 356.43C980.514 356.43 980.969 356.339 981.365 356.156C981.761 355.974 982.071 355.721 982.295 355.398C982.519 355.076 982.631 354.703 982.631 354.281C982.631 353.854 982.511 353.477 982.271 353.148C982.037 352.815 981.699 352.555 981.256 352.367C980.818 352.18 980.298 352.086 979.693 352.086H978.201V349.602H979.693C980.204 349.602 980.654 349.513 981.045 349.336C981.441 349.159 981.748 348.914 981.967 348.602C982.186 348.284 982.295 347.914 982.295 347.492C982.295 347.091 982.199 346.74 982.006 346.437C981.818 346.13 981.553 345.891 981.209 345.719C980.87 345.547 980.475 345.461 980.021 345.461C979.563 345.461 979.144 345.544 978.764 345.711C978.383 345.872 978.079 346.104 977.85 346.406C977.62 346.708 977.498 347.062 977.482 347.469H974.24C974.256 346.547 974.519 345.734 975.029 345.031C975.54 344.328 976.227 343.779 977.092 343.383C977.962 342.982 978.943 342.781 980.037 342.781C981.141 342.781 982.107 342.982 982.936 343.383C983.764 343.784 984.407 344.326 984.865 345.008C985.329 345.685 985.558 346.445 985.553 347.289C985.558 348.185 985.279 348.932 984.717 349.531C984.16 350.13 983.433 350.51 982.537 350.672V350.797C983.714 350.948 984.61 351.357 985.225 352.023C985.844 352.685 986.152 353.513 986.146 354.508C986.152 355.419 985.889 356.229 985.357 356.938C984.831 357.646 984.105 358.203 983.178 358.609C982.251 359.016 981.188 359.219 979.99 359.219ZM997.336 356V355.156C997.336 354.516 997.471 353.927 997.742 353.391C998.018 352.849 998.417 352.417 998.938 352.094C999.464 351.766 1000.1 351.602 1000.86 351.602C1001.63 351.602 1002.27 351.763 1002.79 352.086C1003.32 352.409 1003.71 352.841 1003.98 353.383C1004.25 353.919 1004.38 354.51 1004.38 355.156V356C1004.38 356.641 1004.25 357.232 1003.98 357.773C1003.71 358.31 1003.31 358.74 1002.78 359.063C1002.26 359.391 1001.61 359.555 1000.86 359.555C1000.09 359.555 999.451 359.391 998.93 359.063C998.409 358.74 998.013 358.31 997.742 357.773C997.471 357.232 997.336 356.641 997.336 356ZM999.609 355.156V356C999.609 356.37 999.698 356.719 999.875 357.047C1000.06 357.375 1000.39 357.539 1000.86 357.539C1001.33 357.539 1001.66 357.378 1001.83 357.055C1002.01 356.732 1002.09 356.38 1002.09 356V355.156C1002.09 354.776 1002.01 354.422 1001.84 354.094C1001.68 353.766 1001.35 353.602 1000.86 353.602C1000.39 353.602 1000.07 353.766 999.883 354.094C999.701 354.422 999.609 354.776 999.609 355.156ZM989.125 346.844V346C989.125 345.354 989.263 344.763 989.539 344.227C989.815 343.685 990.214 343.253 990.734 342.93C991.26 342.607 991.896 342.445 992.641 342.445C993.411 342.445 994.057 342.607 994.578 342.93C995.099 343.253 995.495 343.685 995.766 344.227C996.036 344.763 996.172 345.354 996.172 346V346.844C996.172 347.49 996.034 348.081 995.758 348.617C995.487 349.154 995.089 349.583 994.562 349.906C994.042 350.224 993.401 350.383 992.641 350.383C991.88 350.383 991.237 350.221 990.711 349.898C990.19 349.57 989.794 349.141 989.523 348.609C989.258 348.073 989.125 347.484 989.125 346.844ZM991.414 346V346.844C991.414 347.224 991.503 347.576 991.68 347.898C991.862 348.221 992.182 348.383 992.641 348.383C993.12 348.383 993.445 348.221 993.617 347.898C993.794 347.576 993.883 347.224 993.883 346.844V346C993.883 345.62 993.799 345.266 993.633 344.937C993.466 344.609 993.135 344.445 992.641 344.445C992.177 344.445 991.857 344.612 991.68 344.945C991.503 345.279 991.414 345.63 991.414 346ZM990.156 359L1001.16 343H1003.2L992.203 359H990.156Z" fill="#a4b0a2"/>
<path d="M180.391 521V505H183.773V518.211H190.633V521H180.391ZM200.506 515.891V509H203.834V521H200.639V518.82H200.514C200.243 519.523 199.792 520.089 199.162 520.516C198.537 520.943 197.774 521.156 196.873 521.156C196.071 521.156 195.365 520.974 194.756 520.609C194.146 520.245 193.67 519.727 193.326 519.055C192.988 518.383 192.816 517.578 192.811 516.641V509H196.139V516.047C196.144 516.755 196.334 517.315 196.709 517.727C197.084 518.138 197.587 518.344 198.217 518.344C198.618 518.344 198.993 518.253 199.342 518.07C199.691 517.883 199.972 517.607 200.186 517.242C200.404 516.878 200.511 516.427 200.506 515.891ZM211.918 521.234C210.689 521.234 209.632 520.974 208.746 520.453C207.866 519.927 207.189 519.198 206.715 518.266C206.246 517.333 206.012 516.26 206.012 515.047C206.012 513.818 206.249 512.74 206.723 511.812C207.202 510.88 207.882 510.154 208.762 509.633C209.642 509.107 210.689 508.844 211.902 508.844C212.949 508.844 213.866 509.034 214.652 509.414C215.439 509.794 216.061 510.328 216.52 511.016C216.978 511.703 217.23 512.51 217.277 513.438H214.137C214.048 512.839 213.814 512.357 213.434 511.992C213.059 511.622 212.566 511.437 211.957 511.437C211.441 511.437 210.991 511.578 210.605 511.859C210.225 512.135 209.928 512.539 209.715 513.07C209.501 513.602 209.395 514.245 209.395 515C209.395 515.766 209.499 516.417 209.707 516.953C209.921 517.49 210.22 517.898 210.605 518.18C210.991 518.461 211.441 518.602 211.957 518.602C212.337 518.602 212.678 518.523 212.98 518.367C213.288 518.211 213.54 517.984 213.738 517.687C213.941 517.385 214.074 517.023 214.137 516.602H217.277C217.225 517.518 216.975 518.326 216.527 519.023C216.085 519.716 215.473 520.258 214.691 520.648C213.91 521.039 212.986 521.234 211.918 521.234ZM222.424 517.547L222.432 513.555H222.916L226.76 509H230.58L225.416 515.031H224.627L222.424 517.547ZM219.408 521V505H222.736V521H219.408ZM226.908 521L223.377 515.773L225.596 513.422L230.807 521H226.908ZM234.461 525.5C234.039 525.5 233.643 525.466 233.273 525.398C232.909 525.336 232.607 525.255 232.367 525.156L233.117 522.672C233.508 522.792 233.859 522.857 234.172 522.867C234.49 522.878 234.763 522.805 234.992 522.648C235.227 522.492 235.417 522.227 235.563 521.852L235.758 521.344L231.453 509H234.953L237.438 517.812H237.562L240.07 509H243.594L238.93 522.297C238.706 522.943 238.401 523.505 238.016 523.984C237.635 524.469 237.154 524.841 236.57 525.102C235.987 525.367 235.284 525.5 234.461 525.5ZM256.123 521H250.451V505H256.17C257.779 505 259.165 505.32 260.326 505.961C261.488 506.596 262.381 507.51 263.006 508.703C263.636 509.896 263.951 511.323 263.951 512.984C263.951 514.651 263.636 516.083 263.006 517.281C262.381 518.479 261.482 519.398 260.311 520.039C259.144 520.68 257.748 521 256.123 521ZM253.834 518.102H255.982C256.982 518.102 257.824 517.924 258.506 517.57C259.193 517.211 259.709 516.656 260.053 515.906C260.402 515.151 260.576 514.177 260.576 512.984C260.576 511.802 260.402 510.836 260.053 510.086C259.709 509.336 259.196 508.784 258.514 508.43C257.831 508.076 256.99 507.898 255.99 507.898H253.834V518.102ZM266.395 521V509H269.621V511.094H269.746C269.965 510.349 270.332 509.786 270.848 509.406C271.363 509.021 271.957 508.828 272.629 508.828C272.796 508.828 272.975 508.839 273.168 508.859C273.361 508.88 273.53 508.909 273.676 508.945V511.898C273.52 511.852 273.303 511.81 273.027 511.773C272.751 511.737 272.499 511.719 272.27 511.719C271.78 511.719 271.342 511.826 270.957 512.039C270.577 512.247 270.275 512.539 270.051 512.914C269.832 513.289 269.723 513.721 269.723 514.211V521H266.395ZM280.26 521.234C279.046 521.234 277.997 520.977 277.111 520.461C276.231 519.94 275.551 519.216 275.072 518.289C274.593 517.357 274.354 516.276 274.354 515.047C274.354 513.807 274.593 512.724 275.072 511.797C275.551 510.865 276.231 510.141 277.111 509.625C277.997 509.104 279.046 508.844 280.26 508.844C281.473 508.844 282.52 509.104 283.4 509.625C284.286 510.141 284.968 510.865 285.447 511.797C285.926 512.724 286.166 513.807 286.166 515.047C286.166 516.276 285.926 517.357 285.447 518.289C284.968 519.216 284.286 519.94 283.4 520.461C282.52 520.977 281.473 521.234 280.26 521.234ZM280.275 518.656C280.827 518.656 281.288 518.5 281.658 518.188C282.028 517.87 282.307 517.437 282.494 516.891C282.687 516.344 282.783 515.721 282.783 515.023C282.783 514.326 282.687 513.703 282.494 513.156C282.307 512.609 282.028 512.177 281.658 511.859C281.288 511.542 280.827 511.383 280.275 511.383C279.718 511.383 279.249 511.542 278.869 511.859C278.494 512.177 278.21 512.609 278.018 513.156C277.83 513.703 277.736 514.326 277.736 515.023C277.736 515.721 277.83 516.344 278.018 516.891C278.21 517.437 278.494 517.87 278.869 518.188C279.249 518.5 279.718 518.656 280.275 518.656ZM288.33 525.5V509H291.611V511.016H291.76C291.906 510.693 292.117 510.365 292.393 510.031C292.674 509.693 293.038 509.411 293.486 509.188C293.939 508.958 294.502 508.844 295.174 508.844C296.049 508.844 296.856 509.073 297.596 509.531C298.335 509.984 298.926 510.669 299.369 511.586C299.812 512.497 300.033 513.641 300.033 515.016C300.033 516.354 299.817 517.484 299.385 518.406C298.958 519.323 298.374 520.018 297.635 520.492C296.9 520.961 296.077 521.195 295.166 521.195C294.52 521.195 293.971 521.089 293.518 520.875C293.07 520.661 292.702 520.393 292.416 520.07C292.13 519.742 291.911 519.411 291.76 519.078H291.658V525.5H288.33ZM291.588 515C291.588 515.714 291.687 516.336 291.885 516.867C292.083 517.398 292.369 517.812 292.744 518.109C293.119 518.401 293.575 518.547 294.111 518.547C294.653 518.547 295.111 518.398 295.486 518.102C295.861 517.799 296.145 517.383 296.338 516.852C296.536 516.315 296.635 515.698 296.635 515C296.635 514.307 296.538 513.698 296.346 513.172C296.153 512.646 295.869 512.234 295.494 511.937C295.119 511.641 294.658 511.492 294.111 511.492C293.57 511.492 293.111 511.635 292.736 511.922C292.367 512.208 292.083 512.615 291.885 513.141C291.687 513.667 291.588 514.286 291.588 515ZM307.406 521V505H313.719C314.927 505 315.958 505.216 316.813 505.648C317.672 506.076 318.326 506.682 318.773 507.469C319.227 508.25 319.453 509.169 319.453 510.227C319.453 511.289 319.224 512.203 318.766 512.969C318.307 513.729 317.643 514.312 316.773 514.719C315.909 515.125 314.862 515.328 313.633 515.328H309.406V512.609H313.086C313.732 512.609 314.268 512.521 314.695 512.344C315.122 512.167 315.44 511.901 315.648 511.547C315.862 511.193 315.969 510.753 315.969 510.227C315.969 509.695 315.862 509.247 315.648 508.883C315.44 508.518 315.12 508.242 314.688 508.055C314.26 507.862 313.721 507.766 313.07 507.766H310.789V521H307.406ZM316.047 513.719L320.023 521H316.289L312.398 513.719H316.047ZM327.057 521.234C325.822 521.234 324.76 520.984 323.869 520.484C322.984 519.979 322.301 519.266 321.822 518.344C321.343 517.417 321.104 516.32 321.104 515.055C321.104 513.82 321.343 512.737 321.822 511.805C322.301 510.872 322.976 510.146 323.846 509.625C324.721 509.104 325.747 508.844 326.924 508.844C327.715 508.844 328.452 508.971 329.135 509.227C329.822 509.477 330.421 509.854 330.932 510.359C331.447 510.865 331.848 511.5 332.135 512.266C332.421 513.026 332.564 513.917 332.564 514.937V515.852H322.432V513.789H329.432C329.432 513.31 329.327 512.885 329.119 512.516C328.911 512.146 328.622 511.857 328.252 511.648C327.887 511.435 327.463 511.328 326.979 511.328C326.473 511.328 326.025 511.445 325.635 511.68C325.249 511.909 324.947 512.219 324.729 512.609C324.51 512.995 324.398 513.424 324.393 513.898V515.859C324.393 516.453 324.502 516.966 324.721 517.398C324.945 517.831 325.26 518.164 325.666 518.398C326.072 518.633 326.554 518.75 327.111 518.75C327.481 518.75 327.82 518.698 328.127 518.594C328.434 518.49 328.697 518.333 328.916 518.125C329.135 517.917 329.301 517.661 329.416 517.359L332.494 517.562C332.338 518.302 332.018 518.948 331.533 519.5C331.054 520.047 330.434 520.474 329.674 520.781C328.919 521.083 328.046 521.234 327.057 521.234ZM337.018 521L333.752 509H337.119L338.979 517.062H339.088L341.025 509H344.33L346.299 517.016H346.4L348.229 509H351.588L348.33 521H344.807L342.744 513.453H342.596L340.533 521H337.018ZM356.785 521.227C356.02 521.227 355.337 521.094 354.738 520.828C354.139 520.557 353.665 520.159 353.316 519.633C352.973 519.102 352.801 518.44 352.801 517.648C352.801 516.982 352.923 516.422 353.168 515.969C353.413 515.516 353.746 515.151 354.168 514.875C354.59 514.599 355.069 514.391 355.605 514.25C356.147 514.109 356.715 514.01 357.309 513.953C358.007 513.88 358.569 513.812 358.996 513.75C359.423 513.682 359.733 513.583 359.926 513.453C360.118 513.323 360.215 513.13 360.215 512.875V512.828C360.215 512.333 360.059 511.951 359.746 511.68C359.439 511.409 359.001 511.273 358.434 511.273C357.835 511.273 357.358 511.406 357.004 511.672C356.65 511.932 356.415 512.26 356.301 512.656L353.223 512.406C353.379 511.677 353.686 511.047 354.145 510.516C354.603 509.979 355.194 509.568 355.918 509.281C356.647 508.99 357.491 508.844 358.449 508.844C359.116 508.844 359.754 508.922 360.363 509.078C360.978 509.234 361.522 509.477 361.996 509.805C362.475 510.133 362.853 510.555 363.129 511.07C363.405 511.581 363.543 512.193 363.543 512.906V521H360.387V519.336H360.293C360.1 519.711 359.842 520.042 359.52 520.328C359.197 520.609 358.809 520.831 358.355 520.992C357.902 521.148 357.379 521.227 356.785 521.227ZM357.738 518.93C358.228 518.93 358.66 518.833 359.035 518.641C359.41 518.443 359.704 518.177 359.918 517.844C360.132 517.51 360.238 517.133 360.238 516.711V515.438C360.134 515.505 359.991 515.568 359.809 515.625C359.632 515.677 359.431 515.727 359.207 515.773C358.983 515.815 358.759 515.854 358.535 515.891C358.311 515.922 358.108 515.951 357.926 515.977C357.535 516.034 357.194 516.125 356.902 516.25C356.611 516.375 356.384 516.544 356.223 516.758C356.061 516.966 355.98 517.227 355.98 517.539C355.98 517.992 356.145 518.339 356.473 518.578C356.806 518.812 357.228 518.93 357.738 518.93ZM366.125 521V509H369.352V511.094H369.477C369.695 510.349 370.063 509.786 370.578 509.406C371.094 509.021 371.688 508.828 372.359 508.828C372.526 508.828 372.706 508.839 372.898 508.859C373.091 508.88 373.26 508.909 373.406 508.945V511.898C373.25 511.852 373.034 511.81 372.758 511.773C372.482 511.737 372.229 511.719 372 511.719C371.51 511.719 371.073 511.826 370.688 512.039C370.307 512.247 370.005 512.539 369.781 512.914C369.563 513.289 369.453 513.721 369.453 514.211V521H366.125ZM378.99 521.195C378.079 521.195 377.253 520.961 376.514 520.492C375.779 520.018 375.196 519.323 374.764 518.406C374.337 517.484 374.123 516.354 374.123 515.016C374.123 513.641 374.344 512.497 374.787 511.586C375.23 510.669 375.818 509.984 376.553 509.531C377.292 509.073 378.102 508.844 378.982 508.844C379.654 508.844 380.214 508.958 380.662 509.188C381.115 509.411 381.48 509.693 381.756 510.031C382.037 510.365 382.251 510.693 382.396 511.016H382.498V505H385.818V521H382.537V519.078H382.396C382.24 519.411 382.019 519.742 381.732 520.07C381.451 520.393 381.084 520.661 380.631 520.875C380.183 521.089 379.636 521.195 378.99 521.195ZM380.045 518.547C380.581 518.547 381.035 518.401 381.404 518.109C381.779 517.812 382.066 517.398 382.264 516.867C382.467 516.336 382.568 515.714 382.568 515C382.568 514.286 382.469 513.667 382.271 513.141C382.074 512.615 381.787 512.208 381.412 511.922C381.037 511.635 380.581 511.492 380.045 511.492C379.498 511.492 379.037 511.641 378.662 511.937C378.287 512.234 378.003 512.646 377.811 513.172C377.618 513.698 377.521 514.307 377.521 515C377.521 515.698 377.618 516.315 377.811 516.852C378.008 517.383 378.292 517.799 378.662 518.102C379.037 518.398 379.498 518.547 380.045 518.547ZM398.539 512.422L395.492 512.609C395.44 512.349 395.328 512.115 395.156 511.906C394.984 511.693 394.758 511.523 394.477 511.398C394.201 511.268 393.87 511.203 393.484 511.203C392.969 511.203 392.534 511.312 392.18 511.531C391.826 511.745 391.648 512.031 391.648 512.391C391.648 512.677 391.763 512.919 391.992 513.117C392.221 513.315 392.615 513.474 393.172 513.594L395.344 514.031C396.51 514.271 397.38 514.656 397.953 515.187C398.526 515.719 398.813 516.417 398.813 517.281C398.813 518.068 398.581 518.758 398.117 519.352C397.659 519.945 397.029 520.409 396.227 520.742C395.43 521.07 394.51 521.234 393.469 521.234C391.88 521.234 390.615 520.904 389.672 520.242C388.734 519.576 388.185 518.669 388.023 517.523L391.297 517.352C391.396 517.836 391.635 518.206 392.016 518.461C392.396 518.711 392.883 518.836 393.477 518.836C394.06 518.836 394.529 518.724 394.883 518.5C395.242 518.271 395.424 517.977 395.43 517.617C395.424 517.315 395.297 517.068 395.047 516.875C394.797 516.677 394.411 516.526 393.891 516.422L391.813 516.008C390.641 515.773 389.768 515.367 389.195 514.789C388.628 514.211 388.344 513.474 388.344 512.578C388.344 511.807 388.552 511.143 388.969 510.586C389.391 510.029 389.982 509.599 390.742 509.297C391.508 508.995 392.404 508.844 393.43 508.844C394.945 508.844 396.138 509.164 397.008 509.805C397.883 510.445 398.393 511.318 398.539 512.422ZM413.477 511.68V514.32H406.18V511.68H413.477ZM427.287 521.219C426.12 521.219 425.081 521.018 424.17 520.617C423.264 520.211 422.548 519.654 422.021 518.945C421.501 518.232 421.232 517.409 421.217 516.477H424.623C424.644 516.867 424.771 517.211 425.006 517.508C425.245 517.799 425.563 518.026 425.959 518.188C426.355 518.349 426.8 518.43 427.295 518.43C427.811 518.43 428.266 518.339 428.662 518.156C429.058 517.974 429.368 517.721 429.592 517.398C429.816 517.076 429.928 516.703 429.928 516.281C429.928 515.854 429.808 515.477 429.568 515.148C429.334 514.815 428.995 514.555 428.553 514.367C428.115 514.18 427.594 514.086 426.99 514.086H425.498V511.602H426.99C427.501 511.602 427.951 511.513 428.342 511.336C428.738 511.159 429.045 510.914 429.264 510.602C429.482 510.284 429.592 509.914 429.592 509.492C429.592 509.091 429.495 508.74 429.303 508.437C429.115 508.13 428.85 507.891 428.506 507.719C428.167 507.547 427.771 507.461 427.318 507.461C426.86 507.461 426.441 507.544 426.061 507.711C425.68 507.872 425.376 508.104 425.146 508.406C424.917 508.708 424.795 509.062 424.779 509.469H421.537C421.553 508.547 421.816 507.734 422.326 507.031C422.837 506.328 423.524 505.779 424.389 505.383C425.258 504.982 426.24 504.781 427.334 504.781C428.438 504.781 429.404 504.982 430.232 505.383C431.061 505.784 431.704 506.326 432.162 507.008C432.626 507.685 432.855 508.445 432.85 509.289C432.855 510.185 432.576 510.932 432.014 511.531C431.456 512.13 430.73 512.51 429.834 512.672V512.797C431.011 512.948 431.907 513.357 432.521 514.023C433.141 514.685 433.449 515.513 433.443 516.508C433.449 517.419 433.186 518.229 432.654 518.938C432.128 519.646 431.402 520.203 430.475 520.609C429.548 521.016 428.485 521.219 427.287 521.219ZM444.633 518V517.156C444.633 516.516 444.768 515.927 445.039 515.391C445.315 514.849 445.714 514.417 446.234 514.094C446.76 513.766 447.401 513.602 448.156 513.602C448.922 513.602 449.565 513.763 450.086 514.086C450.612 514.409 451.008 514.841 451.273 515.383C451.544 515.919 451.68 516.51 451.68 517.156V518C451.68 518.641 451.544 519.232 451.273 519.773C451.003 520.31 450.604 520.74 450.078 521.063C449.552 521.391 448.911 521.555 448.156 521.555C447.391 521.555 446.747 521.391 446.227 521.063C445.706 520.74 445.31 520.31 445.039 519.773C444.768 519.232 444.633 518.641 444.633 518ZM446.906 517.156V518C446.906 518.37 446.995 518.719 447.172 519.047C447.354 519.375 447.682 519.539 448.156 519.539C448.63 519.539 448.953 519.378 449.125 519.055C449.302 518.732 449.391 518.38 449.391 518V517.156C449.391 516.776 449.307 516.422 449.141 516.094C448.974 515.766 448.646 515.602 448.156 515.602C447.688 515.602 447.362 515.766 447.18 516.094C446.997 516.422 446.906 516.776 446.906 517.156ZM436.422 508.844V508C436.422 507.354 436.56 506.763 436.836 506.227C437.112 505.685 437.51 505.253 438.031 504.93C438.557 504.607 439.193 504.445 439.938 504.445C440.708 504.445 441.354 504.607 441.875 504.93C442.396 505.253 442.792 505.685 443.062 506.227C443.333 506.763 443.469 507.354 443.469 508V508.844C443.469 509.49 443.331 510.081 443.055 510.617C442.784 511.154 442.385 511.583 441.859 511.906C441.339 512.224 440.698 512.383 439.938 512.383C439.177 512.383 438.534 512.221 438.008 511.898C437.487 511.57 437.091 511.141 436.82 510.609C436.555 510.073 436.422 509.484 436.422 508.844ZM438.711 508V508.844C438.711 509.224 438.799 509.576 438.977 509.898C439.159 510.221 439.479 510.383 439.938 510.383C440.417 510.383 440.742 510.221 440.914 509.898C441.091 509.576 441.18 509.224 441.18 508.844V508C441.18 507.62 441.096 507.266 440.93 506.937C440.763 506.609 440.432 506.445 439.938 506.445C439.474 506.445 439.154 506.612 438.977 506.945C438.799 507.279 438.711 507.63 438.711 508ZM437.453 521L448.453 505H450.5L439.5 521H437.453Z" fill="#a4b0a2"/>
<path d="M17.3906 359V343H23.7969C24.974 343 25.9557 343.174 26.7422 343.523C27.5286 343.872 28.1198 344.357 28.5156 344.977C28.9115 345.591 29.1094 346.299 29.1094 347.102C29.1094 347.727 28.9844 348.276 28.7344 348.75C28.4844 349.219 28.1406 349.604 27.7031 349.906C27.2708 350.203 26.776 350.414 26.2188 350.539V350.695C26.8281 350.721 27.3984 350.893 27.9297 351.211C28.4661 351.529 28.901 351.974 29.2344 352.547C29.5677 353.115 29.7344 353.792 29.7344 354.578C29.7344 355.427 29.5234 356.185 29.1016 356.852C28.6849 357.513 28.0677 358.036 27.25 358.422C26.4323 358.807 25.4245 359 24.2266 359H17.3906ZM20.7734 356.234H23.5313C24.474 356.234 25.1615 356.055 25.5938 355.695C26.026 355.331 26.2422 354.846 26.2422 354.242C26.2422 353.799 26.1354 353.409 25.9219 353.07C25.7083 352.732 25.4036 352.466 25.0078 352.273C24.6172 352.081 24.151 351.984 23.6094 351.984H20.7734V356.234ZM20.7734 349.695H23.2812C23.7448 349.695 24.1563 349.615 24.5156 349.453C24.8802 349.286 25.1667 349.052 25.375 348.75C25.5885 348.448 25.6953 348.086 25.6953 347.664C25.6953 347.086 25.4896 346.62 25.0781 346.266C24.6719 345.911 24.0938 345.734 23.3438 345.734H20.7734V349.695ZM39.5684 353.891V347H42.8965V359H39.7012V356.82H39.5762C39.3053 357.523 38.8548 358.089 38.2246 358.516C37.5996 358.943 36.8366 359.156 35.9355 359.156C35.1335 359.156 34.4277 358.974 33.8184 358.609C33.209 358.245 32.7324 357.727 32.3887 357.055C32.0501 356.383 31.8783 355.578 31.873 354.641V347H35.2012V354.047C35.2064 354.755 35.3965 355.315 35.7715 355.727C36.1465 356.138 36.6491 356.344 37.2793 356.344C37.6803 356.344 38.0553 356.253 38.4043 356.07C38.7533 355.883 39.0345 355.607 39.248 355.242C39.4668 354.878 39.5736 354.427 39.5684 353.891ZM47.6133 363.5C47.1914 363.5 46.7956 363.466 46.4258 363.398C46.0612 363.336 45.7591 363.255 45.5195 363.156L46.2695 360.672C46.6602 360.792 47.0117 360.857 47.3242 360.867C47.6419 360.878 47.9154 360.805 48.1445 360.648C48.3789 360.492 48.569 360.227 48.7148 359.852L48.9102 359.344L44.6055 347H48.1055L50.5898 355.812H50.7148L53.2227 347H56.7461L52.082 360.297C51.8581 360.943 51.5534 361.505 51.168 361.984C50.7878 362.469 50.306 362.841 49.7227 363.102C49.1393 363.367 48.4362 363.5 47.6133 363.5ZM66.3613 359H62.7363L68.2598 343H72.6191L78.1348 359H74.5098L70.502 346.656H70.377L66.3613 359ZM66.1348 352.711H74.6973V355.352H66.1348V352.711ZM80.0605 359V343H86.373C87.5814 343 88.6126 343.216 89.4668 343.648C90.3262 344.076 90.9798 344.682 91.4277 345.469C91.8809 346.25 92.1074 347.169 92.1074 348.227C92.1074 349.289 91.8783 350.203 91.4199 350.969C90.9616 351.729 90.2975 352.312 89.4277 352.719C88.5632 353.125 87.5163 353.328 86.2871 353.328H82.0605V350.609H85.7402C86.3861 350.609 86.9225 350.521 87.3496 350.344C87.7767 350.167 88.0944 349.901 88.3027 349.547C88.5163 349.193 88.623 348.753 88.623 348.227C88.623 347.695 88.5163 347.247 88.3027 346.883C88.0944 346.518 87.7741 346.242 87.3418 346.055C86.9147 345.862 86.3757 345.766 85.7246 345.766H83.4434V359H80.0605ZM88.7012 351.719L92.6777 359H88.9434L85.0527 351.719H88.7012ZM94.498 359V343H100.904C102.081 343 103.063 343.174 103.85 343.523C104.636 343.872 105.227 344.357 105.623 344.977C106.019 345.591 106.217 346.299 106.217 347.102C106.217 347.727 106.092 348.276 105.842 348.75C105.592 349.219 105.248 349.604 104.811 349.906C104.378 350.203 103.883 350.414 103.326 350.539V350.695C103.936 350.721 104.506 350.893 105.037 351.211C105.574 351.529 106.008 351.974 106.342 352.547C106.675 353.115 106.842 353.792 106.842 354.578C106.842 355.427 106.631 356.185 106.209 356.852C105.792 357.513 105.175 358.036 104.357 358.422C103.54 358.807 102.532 359 101.334 359H94.498ZM97.8809 356.234H100.639C101.581 356.234 102.269 356.055 102.701 355.695C103.133 355.331 103.35 354.846 103.35 354.242C103.35 353.799 103.243 353.409 103.029 353.07C102.816 352.732 102.511 352.466 102.115 352.273C101.725 352.081 101.258 351.984 100.717 351.984H97.8809V356.234ZM97.8809 349.695H100.389C100.852 349.695 101.264 349.615 101.623 349.453C101.988 349.286 102.274 349.052 102.482 348.75C102.696 348.448 102.803 348.086 102.803 347.664C102.803 347.086 102.597 346.62 102.186 346.266C101.779 345.911 101.201 345.734 100.451 345.734H97.8809V349.695ZM121.549 349.68V352.32H114.252V349.68H121.549ZM135.359 359.219C134.193 359.219 133.154 359.018 132.242 358.617C131.336 358.211 130.62 357.654 130.094 356.945C129.573 356.232 129.305 355.409 129.289 354.477H132.695C132.716 354.867 132.844 355.211 133.078 355.508C133.318 355.799 133.635 356.026 134.031 356.188C134.427 356.349 134.872 356.43 135.367 356.43C135.883 356.43 136.339 356.339 136.734 356.156C137.13 355.974 137.44 355.721 137.664 355.398C137.888 355.076 138 354.703 138 354.281C138 353.854 137.88 353.477 137.641 353.148C137.406 352.815 137.068 352.555 136.625 352.367C136.188 352.18 135.667 352.086 135.062 352.086H133.57V349.602H135.062C135.573 349.602 136.023 349.513 136.414 349.336C136.81 349.159 137.117 348.914 137.336 348.602C137.555 348.284 137.664 347.914 137.664 347.492C137.664 347.091 137.568 346.74 137.375 346.437C137.188 346.13 136.922 345.891 136.578 345.719C136.24 345.547 135.844 345.461 135.391 345.461C134.932 345.461 134.513 345.544 134.133 345.711C133.753 345.872 133.448 346.104 133.219 346.406C132.99 346.708 132.867 347.062 132.852 347.469H129.609C129.625 346.547 129.888 345.734 130.398 345.031C130.909 344.328 131.596 343.779 132.461 343.383C133.331 342.982 134.313 342.781 135.406 342.781C136.51 342.781 137.477 342.982 138.305 343.383C139.133 343.784 139.776 344.326 140.234 345.008C140.698 345.685 140.927 346.445 140.922 347.289C140.927 348.185 140.648 348.932 140.086 349.531C139.529 350.13 138.802 350.51 137.906 350.672V350.797C139.083 350.948 139.979 351.357 140.594 352.023C141.214 352.685 141.521 353.513 141.516 354.508C141.521 355.419 141.258 356.229 140.727 356.938C140.201 357.646 139.474 358.203 138.547 358.609C137.62 359.016 136.557 359.219 135.359 359.219ZM152.705 356V355.156C152.705 354.516 152.84 353.927 153.111 353.391C153.387 352.849 153.786 352.417 154.307 352.094C154.833 351.766 155.473 351.602 156.229 351.602C156.994 351.602 157.637 351.763 158.158 352.086C158.684 352.409 159.08 352.841 159.346 353.383C159.617 353.919 159.752 354.51 159.752 355.156V356C159.752 356.641 159.617 357.232 159.346 357.773C159.075 358.31 158.676 358.74 158.15 359.063C157.624 359.391 156.984 359.555 156.229 359.555C155.463 359.555 154.82 359.391 154.299 359.063C153.778 358.74 153.382 358.31 153.111 357.773C152.84 357.232 152.705 356.641 152.705 356ZM154.979 355.156V356C154.979 356.37 155.067 356.719 155.244 357.047C155.426 357.375 155.755 357.539 156.229 357.539C156.702 357.539 157.025 357.378 157.197 357.055C157.374 356.732 157.463 356.38 157.463 356V355.156C157.463 354.776 157.38 354.422 157.213 354.094C157.046 353.766 156.718 353.602 156.229 353.602C155.76 353.602 155.434 353.766 155.252 354.094C155.07 354.422 154.979 354.776 154.979 355.156ZM144.494 346.844V346C144.494 345.354 144.632 344.763 144.908 344.227C145.184 343.685 145.583 343.253 146.104 342.93C146.63 342.607 147.265 342.445 148.01 342.445C148.781 342.445 149.426 342.607 149.947 342.93C150.468 343.253 150.864 343.685 151.135 344.227C151.406 344.763 151.541 345.354 151.541 346V346.844C151.541 347.49 151.403 348.081 151.127 348.617C150.856 349.154 150.458 349.583 149.932 349.906C149.411 350.224 148.77 350.383 148.01 350.383C147.249 350.383 146.606 350.221 146.08 349.898C145.559 349.57 145.163 349.141 144.893 348.609C144.627 348.073 144.494 347.484 144.494 346.844ZM146.783 346V346.844C146.783 347.224 146.872 347.576 147.049 347.898C147.231 348.221 147.551 348.383 148.01 348.383C148.489 348.383 148.814 348.221 148.986 347.898C149.163 347.576 149.252 347.224 149.252 346.844V346C149.252 345.62 149.169 345.266 149.002 344.937C148.835 344.609 148.505 344.445 148.01 344.445C147.546 344.445 147.226 344.612 147.049 344.945C146.872 345.279 146.783 345.63 146.783 346ZM145.525 359L156.525 343H158.572L147.572 359H145.525Z" fill="#a4b0a2"/>
</g>
<defs>
<clipPath id="clip0_761_59">
<rect width="1016" height="557" fill="white"/>
</clipPath>
</defs>
</svg>
